<?xml version="1.0" encoding="us-ascii" standalone="no"?><svg xmlns="http://www.w3.org/2000/svg" xmlns:xlink="http://www.w3.org/1999/xlink" contentStyleType="text/css" height="1010px" preserveAspectRatio="none" style="width:1275px;height:1010px;background:#FFFFFF;" version="1.1" viewBox="0 0 1275 1010" width="1275px" zoomAndPan="magnify"><defs/><g><text fill="#000000" font-family="sans-serif" font-size="14" font-weight="bold" lengthAdjust="spacing" textLength="364" x="456.75" y="29.5332">Diagrama de Secuencia - CU09: Dar de Alta Hu&#233;sped</text><rect fill="#FFFFFF" height="132.7578" style="stroke:#181818;stroke-width:1.0;" width="10" x="381.5" y="169.9219"/><rect fill="#FFFFFF" height="314.5156" style="stroke:#181818;stroke-width:1.0;" width="10" x="381.5" y="349.0313"/><rect fill="#FFFFFF" height="116.4063" style="stroke:#181818;stroke-width:1.0;" width="10" x="381.5" y="861.9141"/><rect fill="#FFFFFF" height="100.0547" style="stroke:#181818;stroke-width:1.0;" width="10" x="885.5" y="447.0859"/><rect fill="#FFFFFF" height="152.1797" style="stroke:#181818;stroke-width:1.0;" width="10" x="885.5" y="709.7344"/><rect fill="#FFFFFF" height="39.3516" style="stroke:#181818;stroke-width:1.0;" width="10" x="1082.5" y="477.4375"/><rect fill="#FFFFFF" height="98.4766" style="stroke:#181818;stroke-width:1.0;" width="10" x="1082.5" y="709.7344"/><rect fill="#FFFFFF" height="21.2891" style="stroke:#181818;stroke-width:1.0;" width="10" x="1207.5" y="772.9219"/><rect fill="none" height="48.7031" style="stroke:#000000;stroke-width:1.5;" width="490" x="20" y="261.9766"/><rect fill="none" height="93.0547" style="stroke:#000000;stroke-width:1.5;" width="490" x="20" y="324.6797"/><rect fill="none" height="323.7734" style="stroke:#000000;stroke-width:1.5;" width="1258.5" x="10" y="492.4375"/><rect fill="none" height="94.8906" style="stroke:#000000;stroke-width:1.5;" width="1144" x="20" y="622.8438"/><rect fill="none" height="48.7031" style="stroke:#000000;stroke-width:1.5;" width="490" x="20" y="937.6172"/><line style="stroke:#181818;stroke-width:0.5;stroke-dasharray:5.0,5.0;" x1="61" x2="61" y1="121.2188" y2="1003.3203"/><line style="stroke:#181818;stroke-width:0.5;stroke-dasharray:5.0,5.0;" x1="386" x2="386" y1="121.2188" y2="1003.3203"/><line style="stroke:#181818;stroke-width:0.5;stroke-dasharray:5.0,5.0;" x1="890.5" x2="890.5" y1="121.2188" y2="1003.3203"/><line style="stroke:#181818;stroke-width:0.5;stroke-dasharray:5.0,5.0;" x1="1087" x2="1087" y1="121.2188" y2="1003.3203"/><line style="stroke:#181818;stroke-width:0.5;stroke-dasharray:5.0,5.0;" x1="1212.5" x2="1212.5" y1="774.3906" y2="1003.3203"/><text fill="#000000" font-family="sans-serif" font-size="14" lengthAdjust="spacing" textLength="57" x="30" y="118.1426">Conserje</text><ellipse cx="61.5" cy="52.1094" fill="#E2E2F0" rx="8" ry="8" style="stroke:#181818;stroke-width:0.5;"/><path d="M61.5,60.1094 L61.5,87.1094 M48.5,68.1094 L74.5,68.1094 M61.5,87.1094 L48.5,102.1094 M61.5,87.1094 L74.5,102.1094 " fill="none" style="stroke:#181818;stroke-width:0.5;"/><rect fill="#E2E2F0" height="36.6406" rx="2.5" ry="2.5" style="stroke:#181818;stroke-width:0.5;" width="227" x="273" y="83.5781"/><text fill="#000000" font-family="sans-serif" font-size="18" font-weight="bold" lengthAdjust="spacing" textLength="213" x="280" y="109.2637">UI - Dar de Alta Hu&#233;sped</text><rect fill="#E2E2F0" height="36.6406" rx="2.5" ry="2.5" style="stroke:#181818;stroke-width:0.5;" width="152" x="814.5" y="83.5781"/><text fill="#000000" font-family="sans-serif" font-size="18" font-weight="bold" lengthAdjust="spacing" textLength="138" x="821.5" y="109.2637">:GestorPersona</text><rect fill="#E2E2F0" height="36.6406" rx="2.5" ry="2.5" style="stroke:#181818;stroke-width:0.5;" width="133" x="1021" y="83.5781"/><text fill="#000000" font-family="sans-serif" font-size="18" font-weight="bold" lengthAdjust="spacing" textLength="119" x="1028" y="109.2637">:PersonaDAO</text><rect fill="#FFFFFF" height="132.7578" style="stroke:#181818;stroke-width:1.0;" width="10" x="381.5" y="169.9219"/><rect fill="#FFFFFF" height="314.5156" style="stroke:#181818;stroke-width:1.0;" width="10" x="381.5" y="349.0313"/><rect fill="#FFFFFF" height="116.4063" style="stroke:#181818;stroke-width:1.0;" width="10" x="381.5" y="861.9141"/><rect fill="#FFFFFF" height="100.0547" style="stroke:#181818;stroke-width:1.0;" width="10" x="885.5" y="447.0859"/><rect fill="#FFFFFF" height="152.1797" style="stroke:#181818;stroke-width:1.0;" width="10" x="885.5" y="709.7344"/><rect fill="#FFFFFF" height="39.3516" style="stroke:#181818;stroke-width:1.0;" width="10" x="1082.5" y="477.4375"/><rect fill="#FFFFFF" height="98.4766" style="stroke:#181818;stroke-width:1.0;" width="10" x="1082.5" y="709.7344"/><rect fill="#FFFFFF" height="21.2891" style="stroke:#181818;stroke-width:1.0;" width="10" x="1207.5" y="772.9219"/><polygon fill="#181818" points="369.5,165.9219,379.5,169.9219,369.5,173.9219,373.5,169.9219" style="stroke:#181818;stroke-width:1.0;"/><line style="stroke:#181818;stroke-width:1.0;" x1="61.5" x2="375.5" y1="169.9219" y2="169.9219"/><text fill="#000000" font-family="sans-serif" font-size="13" lengthAdjust="spacing" textLength="151" x="68.5" y="148.7139">Solicita trabajar con datos</text><text fill="#000000" font-family="sans-serif" font-size="13" lengthAdjust="spacing" textLength="122" x="68.5" y="165.0654">de un nuevo hu&#233;sped</text><polygon fill="#181818" points="72.5,212.625,62.5,216.625,72.5,220.625,68.5,216.625" style="stroke:#181818;stroke-width:1.0;"/><line style="stroke:#181818;stroke-width:1.0;" x1="66.5" x2="380.5" y1="216.625" y2="216.625"/><text fill="#000000" font-family="sans-serif" font-size="13" lengthAdjust="spacing" textLength="175" x="78.5" y="195.417">Presenta la pantalla en blanco</text><text fill="#000000" font-family="sans-serif" font-size="13" lengthAdjust="spacing" textLength="189" x="78.5" y="211.7686">para cargar los datos personales</text><polygon fill="#181818" points="369.5,242.9766,379.5,246.9766,369.5,250.9766,373.5,246.9766" style="stroke:#181818;stroke-width:1.0;"/><line style="stroke:#181818;stroke-width:1.0;" x1="61.5" x2="375.5" y1="246.9766" y2="246.9766"/><text fill="#000000" font-family="sans-serif" font-size="13" lengthAdjust="spacing" textLength="149" x="68.5" y="242.1201">Ingresar datos personales</text><path d="M20,261.9766 L81,261.9766 L81,270.3281 L71,280.3281 L20,280.3281 L20,261.9766 " fill="#EEEEEE" style="stroke:#000000;stroke-width:1.5;"/><rect fill="none" height="48.7031" style="stroke:#000000;stroke-width:1.5;" width="490" x="20" y="261.9766"/><text fill="#000000" font-family="sans-serif" font-size="13" font-weight="bold" lengthAdjust="spacing" textLength="16" x="35" y="276.4717">alt</text><text fill="#000000" font-family="sans-serif" font-size="11" font-weight="bold" lengthAdjust="spacing" textLength="133" x="96" y="275.3955">[datosCompletos=false]</text><polygon fill="#181818" points="72.5,298.6797,62.5,302.6797,72.5,306.6797,68.5,302.6797" style="stroke:#181818;stroke-width:1.0;"/><line style="stroke:#181818;stroke-width:1.0;" x1="66.5" x2="385.5" y1="302.6797" y2="302.6797"/><text fill="#000000" font-family="sans-serif" font-size="13" lengthAdjust="spacing" textLength="239" x="78.5" y="297.8232">Mostrar mensaje de los campos faltantes</text><path d="M20,324.6797 L81,324.6797 L81,333.0313 L71,343.0313 L20,343.0313 L20,324.6797 " fill="#EEEEEE" style="stroke:#000000;stroke-width:1.5;"/><rect fill="none" height="93.0547" style="stroke:#000000;stroke-width:1.5;" width="490" x="20" y="324.6797"/><text fill="#000000" font-family="sans-serif" font-size="13" font-weight="bold" lengthAdjust="spacing" textLength="16" x="35" y="339.1748">alt</text><polygon fill="#181818" points="369.5,375.3828,379.5,379.3828,369.5,383.3828,373.5,379.3828" style="stroke:#181818;stroke-width:1.0;"/><line style="stroke:#181818;stroke-width:1.0;" x1="61.5" x2="375.5" y1="379.3828" y2="379.3828"/><text fill="#000000" font-family="sans-serif" font-size="13" lengthAdjust="spacing" textLength="51" x="68.5" y="374.5264">Cancelar</text><polygon fill="#181818" points="72.5,405.7344,62.5,409.7344,72.5,413.7344,68.5,409.7344" style="stroke:#181818;stroke-width:1.0;"/><line style="stroke:#181818;stroke-width:1.0;" x1="66.5" x2="380.5" y1="409.7344" y2="409.7344"/><text fill="#000000" font-family="sans-serif" font-size="13" lengthAdjust="spacing" textLength="174" x="78.5" y="404.8779">Regresa a la pantalla principal</text><polygon fill="#181818" points="873.5,443.0859,883.5,447.0859,873.5,451.0859,877.5,447.0859" style="stroke:#181818;stroke-width:1.0;"/><line style="stroke:#181818;stroke-width:1.0;" x1="391.5" x2="879.5" y1="447.0859" y2="447.0859"/><text fill="#000000" font-family="sans-serif" font-size="13" lengthAdjust="spacing" textLength="168" x="430.5" y="442.2295">buscarHuesped(tipo_dni, dni)</text><polygon fill="#181818" points="1070.5,473.4375,1080.5,477.4375,1070.5,481.4375,1074.5,477.4375" style="stroke:#181818;stroke-width:1.0;"/><line style="stroke:#181818;stroke-width:1.0;" x1="895.5" x2="1076.5" y1="477.4375" y2="477.4375"/><text fill="#000000" font-family="sans-serif" font-size="13" lengthAdjust="spacing" textLength="168" x="902.5" y="472.5811">buscarHuesped(tipo_dni, dni)</text><path d="M10,492.4375 L71,492.4375 L71,500.7891 L61,510.7891 L10,510.7891 L10,492.4375 " fill="#EEEEEE" style="stroke:#000000;stroke-width:1.5;"/><rect fill="none" height="323.7734" style="stroke:#000000;stroke-width:1.5;" width="1258.5" x="10" y="492.4375"/><text fill="#000000" font-family="sans-serif" font-size="13" font-weight="bold" lengthAdjust="spacing" textLength="16" x="25" y="506.9326">alt</text><text fill="#000000" font-family="sans-serif" font-size="11" font-weight="bold" lengthAdjust="spacing" textLength="44" x="86" y="505.8564">[p!=null]</text><polygon fill="#181818" points="906.5,512.7891,896.5,516.7891,906.5,520.7891,902.5,516.7891" style="stroke:#181818;stroke-width:1.0;"/><line style="stroke:#181818;stroke-width:1.0;stroke-dasharray:2.0,2.0;" x1="900.5" x2="1086.5" y1="516.7891" y2="516.7891"/><polygon fill="#181818" points="402.5,543.1406,392.5,547.1406,402.5,551.1406,398.5,547.1406" style="stroke:#181818;stroke-width:1.0;"/><line style="stroke:#181818;stroke-width:1.0;stroke-dasharray:2.0,2.0;" x1="396.5" x2="889.5" y1="547.1406" y2="547.1406"/><text fill="#000000" font-family="sans-serif" font-size="13" lengthAdjust="spacing" textLength="470" x="408.5" y="542.2842">Mostrar mensaje "&#161;CUIDADO! El n&#250;mero de documento ya existen en el sistema"</text><polygon fill="#181818" points="72.5,573.4922,62.5,577.4922,72.5,581.4922,68.5,577.4922" style="stroke:#181818;stroke-width:1.0;"/><line style="stroke:#181818;stroke-width:1.0;" x1="66.5" x2="380.5" y1="577.4922" y2="577.4922"/><text fill="#000000" font-family="sans-serif" font-size="13" lengthAdjust="spacing" textLength="296" x="78.5" y="572.6357">Mostrar opciones "Aceptar igualmente" y "Corregir"</text><polygon fill="#181818" points="369.5,603.8438,379.5,607.8438,369.5,611.8438,373.5,607.8438" style="stroke:#181818;stroke-width:1.0;"/><line style="stroke:#181818;stroke-width:1.0;" x1="61.5" x2="375.5" y1="607.8438" y2="607.8438"/><text fill="#000000" font-family="sans-serif" font-size="13" lengthAdjust="spacing" textLength="75" x="68.5" y="602.9873">Elegir opci&#243;n</text><path d="M20,622.8438 L81,622.8438 L81,631.1953 L71,641.1953 L20,641.1953 L20,622.8438 " fill="#EEEEEE" style="stroke:#000000;stroke-width:1.5;"/><rect fill="none" height="94.8906" style="stroke:#000000;stroke-width:1.5;" width="1144" x="20" y="622.8438"/><text fill="#000000" font-family="sans-serif" font-size="13" font-weight="bold" lengthAdjust="spacing" textLength="16" x="35" y="637.3389">alt</text><text fill="#000000" font-family="sans-serif" font-size="11" font-weight="bold" lengthAdjust="spacing" textLength="98" x="96" y="636.2627">[opcion=Corregir]</text><polygon fill="#181818" points="72.5,659.5469,62.5,663.5469,72.5,667.5469,68.5,663.5469" style="stroke:#181818;stroke-width:1.0;"/><line style="stroke:#181818;stroke-width:1.0;" x1="66.5" x2="385.5" y1="663.5469" y2="663.5469"/><text fill="#000000" font-family="sans-serif" font-size="13" lengthAdjust="spacing" textLength="158" x="78.5" y="658.6904">Solicitar reingreso de datos</text><line style="stroke:#000000;stroke-width:1.0;stroke-dasharray:2.0,2.0;" x1="20" x2="1164" y1="672.5469" y2="672.5469"/><text fill="#000000" font-family="sans-serif" font-size="11" font-weight="bold" lengthAdjust="spacing" textLength="159" x="25" y="683.9658">[opcion=Aceptar igualmente]</text><polygon fill="#181818" points="1070.5,705.7344,1080.5,709.7344,1070.5,713.7344,1074.5,709.7344" style="stroke:#181818;stroke-width:1.0;"/><line style="stroke:#181818;stroke-width:1.0;" x1="895.5" x2="1076.5" y1="709.7344" y2="709.7344"/><text fill="#000000" font-family="sans-serif" font-size="13" lengthAdjust="spacing" textLength="136" x="902.5" y="704.8779">crearHuesped(Persona)</text><line style="stroke:#000000;stroke-width:1.0;stroke-dasharray:2.0,2.0;" x1="10" x2="1268.5" y1="725.7344" y2="725.7344"/><text fill="#000000" font-family="sans-serif" font-size="11" font-weight="bold" lengthAdjust="spacing" textLength="41" x="15" y="737.1533">[p=null]</text><polygon fill="#181818" points="1154.5,758.9219,1164.5,762.9219,1154.5,766.9219,1158.5,762.9219" style="stroke:#181818;stroke-width:1.0;"/><line style="stroke:#181818;stroke-width:1.0;" x1="1092.5" x2="1160.5" y1="762.9219" y2="762.9219"/><text fill="#000000" font-family="sans-serif" font-size="13" lengthAdjust="spacing" textLength="50" x="1099.5" y="758.0654">&#171;create&#187;</text><rect fill="#E2E2F0" height="36.6406" rx="2.5" ry="2.5" style="stroke:#181818;stroke-width:0.5;" width="92" x="1166.5" y="740.5703"/><text fill="#000000" font-family="sans-serif" font-size="18" font-weight="bold" lengthAdjust="spacing" textLength="78" x="1173.5" y="766.2559">Huesped</text><polygon fill="#181818" points="1103.5,790.2109,1093.5,794.2109,1103.5,798.2109,1099.5,794.2109" style="stroke:#181818;stroke-width:1.0;"/><line style="stroke:#181818;stroke-width:1.0;stroke-dasharray:2.0,2.0;" x1="1097.5" x2="1211.5" y1="794.2109" y2="794.2109"/><polygon fill="#181818" points="906.5,804.2109,896.5,808.2109,906.5,812.2109,902.5,808.2109" style="stroke:#181818;stroke-width:1.0;"/><line style="stroke:#181818;stroke-width:1.0;stroke-dasharray:2.0,2.0;" x1="900.5" x2="1086.5" y1="808.2109" y2="808.2109"/><polygon fill="#181818" points="402.5,857.9141,392.5,861.9141,402.5,865.9141,398.5,861.9141" style="stroke:#181818;stroke-width:1.0;"/><line style="stroke:#181818;stroke-width:1.0;" x1="396.5" x2="889.5" y1="861.9141" y2="861.9141"/><text fill="#000000" font-family="sans-serif" font-size="13" lengthAdjust="spacing" textLength="394" x="408.5" y="840.7061">Mostrar mensaje "El hu&#233;sped &lt;nombre&gt; &lt;apellido&gt; ha sido cargado</text><text fill="#000000" font-family="sans-serif" font-size="13" lengthAdjust="spacing" textLength="351" x="408.5" y="857.0576">satisfactoriamente cargado al sistema. &#191;Desea cargar otro?"</text><polygon fill="#181818" points="72.5,888.2656,62.5,892.2656,72.5,896.2656,68.5,892.2656" style="stroke:#181818;stroke-width:1.0;"/><line style="stroke:#181818;stroke-width:1.0;" x1="66.5" x2="380.5" y1="892.2656" y2="892.2656"/><text fill="#000000" font-family="sans-serif" font-size="13" lengthAdjust="spacing" textLength="167" x="78.5" y="887.4092">Mostrar opciones "S&#237;" y "No"</text><polygon fill="#181818" points="369.5,918.6172,379.5,922.6172,369.5,926.6172,373.5,922.6172" style="stroke:#181818;stroke-width:1.0;"/><line style="stroke:#181818;stroke-width:1.0;" x1="61.5" x2="375.5" y1="922.6172" y2="922.6172"/><text fill="#000000" font-family="sans-serif" font-size="13" lengthAdjust="spacing" textLength="75" x="68.5" y="917.7607">Elegir opci&#243;n</text><path d="M20,937.6172 L81,937.6172 L81,945.9688 L71,955.9688 L20,955.9688 L20,937.6172 " fill="#EEEEEE" style="stroke:#000000;stroke-width:1.5;"/><rect fill="none" height="48.7031" style="stroke:#000000;stroke-width:1.5;" width="490" x="20" y="937.6172"/><text fill="#000000" font-family="sans-serif" font-size="13" font-weight="bold" lengthAdjust="spacing" textLength="16" x="35" y="952.1123">alt</text><text fill="#000000" font-family="sans-serif" font-size="11" font-weight="bold" lengthAdjust="spacing" textLength="61" x="96" y="951.0361">[opcion=S&#237;]</text><polygon fill="#181818" points="72.5,974.3203,62.5,978.3203,72.5,982.3203,68.5,978.3203" style="stroke:#181818;stroke-width:1.0;"/><line style="stroke:#181818;stroke-width:1.0;" x1="66.5" x2="385.5" y1="978.3203" y2="978.3203"/><text fill="#000000" font-family="sans-serif" font-size="13" lengthAdjust="spacing" textLength="139" x="78.5" y="973.4639">Volver a cargar hu&#233;sped</text><!--SRC=[dLN1Rjim3BthArYVrc8PTbsGU0YIOkrXQx6YkpJ5mDXieaAM34aksi_PSOUTTjjbGFDZe-pOiPraAsO4iKs9Zu_ae-obLmGpYKkB6K9AS4L9GJgH20EONhzzDuGPsh0mKHxXh5X_TpcbGgmas-wCyGlpA33nniBKQ4VsdaIErij4vgWzN9_3ZG2-nlmqs0zss_7uG8xHBiawex5s7dQiFO-DTJQvQBPlJRszPmM5cFN6pIjl4ZLz6CI1zH2kZ68l9kejBl2UcIT6GuhUkBdc90eDkg070wiw4Qw3V41Fx2zA_91pt1I6CIyjETACgH027rJyG1eM2dLYvfgf8YHebnnD6LT5WxpAHf4hKNUOdkibuuRIzhUN-r7vQcLgibmHFuplK3ag5_VI_6WS9sqX8-sGBPnjO9DWblEDdJrptx09Lqhjr8E5T5e5hnbqWjsmV5BIjzkWpN8VQ6_2KwuMARI7C_XCPKcWM-dSIXs4e1h7Xcpv8YgShWI7CFUBmd5NDcfvvMLklgPQlWR-EzwslIjIqOLXt9PGX_0oo9QGHUXZVZJMXQhuj-06VTQYrvOMJfDsZrzTt7xpe-Tlq-lpsMHsSGId2lJwLqRM14sa9YbubpVmn2f-bCwpbCDFWGil6KPz7hia3uhFv8aqcXn4auHopnQvB525W1J14qHJOoqjfOtsJyMf2eibpFgdRYQXWXtNpeSbLC-_1KkodB0gwJ19VrC-JrOTP9VuliBtX95OskfYit8iEhEnMyL3ZGxIBXdbfMv0x2Wdhi_4anCEFXg5y9xYk0jR7vJ1M9-XWmxpVgVR7l-fr41-frRxDSh2h8zX66cJBIp5CCASb9AfYM65BCdKL6Sht-VivwMxApzT4ilUD8lOwFSDFF-UyP7T7Ch6M_C-4WSLtLR32vHzjVvHIlcJYSI_1DmIBxljdvqlHZsGXOPkysdQrMeexXy0]--></g></svg>