<?xml version="1.0" encoding="us-ascii" standalone="no"?><svg xmlns="http://www.w3.org/2000/svg" xmlns:xlink="http://www.w3.org/1999/xlink" contentStyleType="text/css" height="1084px" preserveAspectRatio="none" style="width:1283px;height:1084px;background:#FFFFFF;" version="1.1" viewBox="0 0 1283 1084" width="1283px" zoomAndPan="magnify"><defs/><g><rect fill="#FFFFFF" height="30.3516" style="stroke:#181818;stroke-width:1.0;" width="10" x="390.5" y="114.9609"/><rect fill="#FFFFFF" height="637.2891" style="stroke:#181818;stroke-width:1.0;" width="10" x="390.5" y="201.0156"/><rect fill="#FFFFFF" height="60.7031" style="stroke:#181818;stroke-width:1.0;" width="10" x="390.5" y="884.6563"/><rect fill="#FFFFFF" height="60.7031" style="stroke:#181818;stroke-width:1.0;" width="10" x="390.5" y="991.7109"/><rect fill="#FFFFFF" height="91.0547" style="stroke:#181818;stroke-width:1.0;" width="10" x="846.5" y="231.3672"/><rect fill="#FFFFFF" height="147.6641" style="stroke:#181818;stroke-width:1.0;" width="10" x="846.5" y="660.2891"/><rect fill="#FFFFFF" height="30.3516" style="stroke:#181818;stroke-width:1.0;" width="10" x="1116.5" y="261.7188"/><rect fill="#FFFFFF" height="86.9609" style="stroke:#181818;stroke-width:1.0;" width="10" x="1116.5" y="690.6406"/><rect fill="#FFFFFF" height="16.2578" style="stroke:#181818;stroke-width:1.0;" width="10" x="1229" y="730.9922"/><rect fill="none" height="685.9922" style="stroke:#000000;stroke-width:1.5;" width="1267.5" x="10" y="160.3125"/><rect fill="none" height="79.0547" style="stroke:#000000;stroke-width:1.5;" width="467" x="20" y="367.7734"/><rect fill="none" height="79.0547" style="stroke:#000000;stroke-width:1.5;" width="467" x="20" y="460.8281"/><rect fill="none" height="93.0547" style="stroke:#000000;stroke-width:1.5;" width="467" x="20" y="860.3047"/><rect fill="none" height="93.0547" style="stroke:#000000;stroke-width:1.5;" width="467" x="20" y="967.3594"/><line style="stroke:#181818;stroke-width:0.5;stroke-dasharray:5.0,5.0;" x1="61" x2="61" y1="82.6094" y2="1077.4141"/><line style="stroke:#181818;stroke-width:0.5;stroke-dasharray:5.0,5.0;" x1="395" x2="395" y1="82.6094" y2="1077.4141"/><line style="stroke:#181818;stroke-width:0.5;stroke-dasharray:5.0,5.0;" x1="851.5" x2="851.5" y1="82.6094" y2="1077.4141"/><line style="stroke:#181818;stroke-width:0.5;stroke-dasharray:5.0,5.0;" x1="1121" x2="1121" y1="82.6094" y2="1077.4141"/><line style="stroke:#181818;stroke-width:0.5;stroke-dasharray:5.0,5.0;" x1="1233.5" x2="1233.5" y1="729.9453" y2="1077.4141"/><text fill="#000000" font-family="sans-serif" font-size="14" lengthAdjust="spacing" textLength="57" x="30" y="79.5332">Conserje</text><ellipse cx="61.5" cy="13.5" fill="#E2E2F0" rx="8" ry="8" style="stroke:#181818;stroke-width:0.5;"/><path d="M61.5,21.5 L61.5,48.5 M48.5,29.5 L74.5,29.5 M61.5,48.5 L48.5,63.5 M61.5,48.5 L74.5,63.5 " fill="none" style="stroke:#181818;stroke-width:0.5;"/><rect fill="#E2E2F0" height="31.6094" rx="2.5" ry="2.5" style="stroke:#181818;stroke-width:0.5;" width="163" x="314" y="50"/><text fill="#000000" font-family="sans-serif" font-size="14" lengthAdjust="spacing" textLength="149" x="321" y="71.5332">UI - ReservarHabitacion</text><rect fill="#E2E2F0" height="31.6094" rx="2.5" ry="2.5" style="stroke:#181818;stroke-width:0.5;" width="110" x="796.5" y="50"/><text fill="#000000" font-family="sans-serif" font-size="14" lengthAdjust="spacing" textLength="96" x="803.5" y="71.5332">GestorReserva</text><rect fill="#E2E2F0" height="31.6094" rx="2.5" ry="2.5" style="stroke:#181818;stroke-width:0.5;" width="97" x="1073" y="50"/><text fill="#000000" font-family="sans-serif" font-size="14" lengthAdjust="spacing" textLength="83" x="1080" y="71.5332">ReservaDAO</text><rect fill="#FFFFFF" height="30.3516" style="stroke:#181818;stroke-width:1.0;" width="10" x="390.5" y="114.9609"/><rect fill="#FFFFFF" height="637.2891" style="stroke:#181818;stroke-width:1.0;" width="10" x="390.5" y="201.0156"/><rect fill="#FFFFFF" height="60.7031" style="stroke:#181818;stroke-width:1.0;" width="10" x="390.5" y="884.6563"/><rect fill="#FFFFFF" height="60.7031" style="stroke:#181818;stroke-width:1.0;" width="10" x="390.5" y="991.7109"/><rect fill="#FFFFFF" height="91.0547" style="stroke:#181818;stroke-width:1.0;" width="10" x="846.5" y="231.3672"/><rect fill="#FFFFFF" height="147.6641" style="stroke:#181818;stroke-width:1.0;" width="10" x="846.5" y="660.2891"/><rect fill="#FFFFFF" height="30.3516" style="stroke:#181818;stroke-width:1.0;" width="10" x="1116.5" y="261.7188"/><rect fill="#FFFFFF" height="86.9609" style="stroke:#181818;stroke-width:1.0;" width="10" x="1116.5" y="690.6406"/><rect fill="#FFFFFF" height="16.2578" style="stroke:#181818;stroke-width:1.0;" width="10" x="1229" y="730.9922"/><polygon fill="#181818" points="378.5,110.9609,388.5,114.9609,378.5,118.9609,382.5,114.9609" style="stroke:#181818;stroke-width:1.0;"/><line style="stroke:#181818;stroke-width:1.0;" x1="61.5" x2="384.5" y1="114.9609" y2="114.9609"/><text fill="#000000" font-family="sans-serif" font-size="13" lengthAdjust="spacing" textLength="310" x="68.5" y="110.1045">Desea reservar habitaciones a nombre de un huesped</text><polygon fill="#181818" points="72.5,141.3125,62.5,145.3125,72.5,149.3125,68.5,145.3125" style="stroke:#181818;stroke-width:1.0;"/><line style="stroke:#181818;stroke-width:1.0;" x1="66.5" x2="394.5" y1="145.3125" y2="145.3125"/><text fill="#000000" font-family="sans-serif" font-size="13" lengthAdjust="spacing" textLength="276" x="78.5" y="140.4561">Navegar a CU5 Mostrar Estado de Habitaciones</text><path d="M10,160.3125 L71,160.3125 L71,168.6641 L61,178.6641 L10,178.6641 L10,160.3125 " fill="#EEEEEE" style="stroke:#000000;stroke-width:1.5;"/><rect fill="none" height="685.9922" style="stroke:#000000;stroke-width:1.5;" width="1267.5" x="10" y="160.3125"/><text fill="#000000" font-family="sans-serif" font-size="13" font-weight="bold" lengthAdjust="spacing" textLength="16" x="25" y="174.8076">alt</text><text fill="#000000" font-family="sans-serif" font-size="11" font-weight="bold" lengthAdjust="spacing" textLength="84" x="86" y="173.7314">[Flujo Principal]</text><polygon fill="#181818" points="378.5,197.0156,388.5,201.0156,378.5,205.0156,382.5,201.0156" style="stroke:#181818;stroke-width:1.0;"/><line style="stroke:#181818;stroke-width:1.0;" x1="61.5" x2="384.5" y1="201.0156" y2="201.0156"/><text fill="#000000" font-family="sans-serif" font-size="13" lengthAdjust="spacing" textLength="255" x="68.5" y="196.1592">seleccionar habitacion/es + rango de fechas</text><polygon fill="#181818" points="834.5,227.3672,844.5,231.3672,834.5,235.3672,838.5,231.3672" style="stroke:#181818;stroke-width:1.0;"/><line style="stroke:#181818;stroke-width:1.0;" x1="400.5" x2="840.5" y1="231.3672" y2="231.3672"/><text fill="#000000" font-family="sans-serif" font-size="13" lengthAdjust="spacing" textLength="241" x="407.5" y="226.5107">f:= ReservarHabitacion(ListaHabitaciones)</text><polygon fill="#181818" points="1104.5,257.7188,1114.5,261.7188,1104.5,265.7188,1108.5,261.7188" style="stroke:#181818;stroke-width:1.0;"/><line style="stroke:#181818;stroke-width:1.0;" x1="856.5" x2="1110.5" y1="261.7188" y2="261.7188"/><text fill="#000000" font-family="sans-serif" font-size="13" lengthAdjust="spacing" textLength="241" x="863.5" y="256.8623">f:= ReservarHabitacion(ListaHabitaciones)</text><polygon fill="#181818" points="867.5,288.0703,857.5,292.0703,867.5,296.0703,863.5,292.0703" style="stroke:#181818;stroke-width:1.0;"/><line style="stroke:#181818;stroke-width:1.0;stroke-dasharray:2.0,2.0;" x1="861.5" x2="1120.5" y1="292.0703" y2="292.0703"/><text fill="#000000" font-family="sans-serif" font-size="13" lengthAdjust="spacing" textLength="142" x="873.5" y="287.2139">HabitacionesReservadas</text><polygon fill="#181818" points="411.5,318.4219,401.5,322.4219,411.5,326.4219,407.5,322.4219" style="stroke:#181818;stroke-width:1.0;"/><line style="stroke:#181818;stroke-width:1.0;stroke-dasharray:2.0,2.0;" x1="405.5" x2="850.5" y1="322.4219" y2="322.4219"/><text fill="#000000" font-family="sans-serif" font-size="13" lengthAdjust="spacing" textLength="422" x="417.5" y="317.5654">Se muestran las habitaciones seleccionadas pintadas con RESERVADA</text><polygon fill="#181818" points="72.5,348.7734,62.5,352.7734,72.5,356.7734,68.5,352.7734" style="stroke:#181818;stroke-width:1.0;"/><line style="stroke:#181818;stroke-width:1.0;" x1="66.5" x2="389.5" y1="352.7734" y2="352.7734"/><text fill="#000000" font-family="sans-serif" font-size="13" lengthAdjust="spacing" textLength="250" x="78.5" y="347.917">Solicita presionar ACEPTAR o RECHAZAR</text><path d="M20,367.7734 L81,367.7734 L81,376.125 L71,386.125 L20,386.125 L20,367.7734 " fill="#EEEEEE" style="stroke:#000000;stroke-width:1.5;"/><rect fill="none" height="79.0547" style="stroke:#000000;stroke-width:1.5;" width="467" x="20" y="367.7734"/><text fill="#000000" font-family="sans-serif" font-size="13" font-weight="bold" lengthAdjust="spacing" textLength="16" x="35" y="382.2686">alt</text><text fill="#000000" font-family="sans-serif" font-size="11" font-weight="bold" lengthAdjust="spacing" textLength="243" x="96" y="381.1924">[No hay habitaciones disponibles (Paso 3.A)]</text><polygon fill="#181818" points="72.5,404.4766,62.5,408.4766,72.5,412.4766,68.5,408.4766" style="stroke:#181818;stroke-width:1.0;"/><line style="stroke:#181818;stroke-width:1.0;stroke-dasharray:2.0,2.0;" x1="66.5" x2="389.5" y1="408.4766" y2="408.4766"/><text fill="#000000" font-family="sans-serif" font-size="13" lengthAdjust="spacing" textLength="209" x="78.5" y="403.6201">"No hay habitaciones disponibles..."</text><polygon fill="#181818" points="72.5,434.8281,62.5,438.8281,72.5,442.8281,68.5,438.8281" style="stroke:#181818;stroke-width:1.0;"/><line style="stroke:#181818;stroke-width:1.0;stroke-dasharray:2.0,2.0;" x1="66.5" x2="389.5" y1="438.8281" y2="438.8281"/><text fill="#000000" font-family="sans-serif" font-size="13" lengthAdjust="spacing" textLength="114" x="78.5" y="433.9717">Fin del caso de uso</text><path d="M20,460.8281 L81,460.8281 L81,469.1797 L71,479.1797 L20,479.1797 L20,460.8281 " fill="#EEEEEE" style="stroke:#000000;stroke-width:1.5;"/><rect fill="none" height="79.0547" style="stroke:#000000;stroke-width:1.5;" width="467" x="20" y="460.8281"/><text fill="#000000" font-family="sans-serif" font-size="13" font-weight="bold" lengthAdjust="spacing" textLength="16" x="35" y="475.3232">alt</text><text fill="#000000" font-family="sans-serif" font-size="11" font-weight="bold" lengthAdjust="spacing" textLength="261" x="96" y="474.2471">[Selecciona habitaci&#243;n no disponible (Paso 3.B)]</text><polygon fill="#181818" points="72.5,497.5313,62.5,501.5313,72.5,505.5313,68.5,501.5313" style="stroke:#181818;stroke-width:1.0;"/><line style="stroke:#181818;stroke-width:1.0;stroke-dasharray:2.0,2.0;" x1="66.5" x2="389.5" y1="501.5313" y2="501.5313"/><text fill="#000000" font-family="sans-serif" font-size="13" lengthAdjust="spacing" textLength="281" x="78.5" y="496.6748">"Habitaci&#243;n no disponible en el periodo indicado"</text><polygon fill="#181818" points="72.5,527.8828,62.5,531.8828,72.5,535.8828,68.5,531.8828" style="stroke:#181818;stroke-width:1.0;"/><line style="stroke:#181818;stroke-width:1.0;stroke-dasharray:2.0,2.0;" x1="66.5" x2="389.5" y1="531.8828" y2="531.8828"/><text fill="#000000" font-family="sans-serif" font-size="13" lengthAdjust="spacing" textLength="101" x="78.5" y="527.0264">volver a selecci&#243;n</text><polygon fill="#181818" points="378.5,565.2344,388.5,569.2344,378.5,573.2344,382.5,569.2344" style="stroke:#181818;stroke-width:1.0;"/><line style="stroke:#181818;stroke-width:1.0;" x1="61.5" x2="384.5" y1="569.2344" y2="569.2344"/><text fill="#000000" font-family="sans-serif" font-size="13" lengthAdjust="spacing" textLength="116" x="68.5" y="564.3779">Presiona ACEPTAR</text><polygon fill="#181818" points="72.5,595.5859,62.5,599.5859,72.5,603.5859,68.5,599.5859" style="stroke:#181818;stroke-width:1.0;"/><line style="stroke:#181818;stroke-width:1.0;" x1="66.5" x2="389.5" y1="599.5859" y2="599.5859"/><text fill="#000000" font-family="sans-serif" font-size="13" lengthAdjust="spacing" textLength="292" x="78.5" y="594.7295">Solicita datos hu&#233;sped (apellido, nombre, tel&#233;fono)</text><polygon fill="#181818" points="378.5,625.9375,388.5,629.9375,378.5,633.9375,382.5,629.9375" style="stroke:#181818;stroke-width:1.0;"/><line style="stroke:#181818;stroke-width:1.0;" x1="61.5" x2="384.5" y1="629.9375" y2="629.9375"/><text fill="#000000" font-family="sans-serif" font-size="13" lengthAdjust="spacing" textLength="137" x="68.5" y="625.0811">Completa los 3 campos</text><polygon fill="#181818" points="834.5,656.2891,844.5,660.2891,834.5,664.2891,838.5,660.2891" style="stroke:#181818;stroke-width:1.0;"/><line style="stroke:#181818;stroke-width:1.0;" x1="400.5" x2="840.5" y1="660.2891" y2="660.2891"/><text fill="#000000" font-family="sans-serif" font-size="13" lengthAdjust="spacing" textLength="244" x="407.5" y="655.4326">f:= CrearReserva(apellido,nombre,telefono)</text><polygon fill="#181818" points="1104.5,686.6406,1114.5,690.6406,1104.5,694.6406,1108.5,690.6406" style="stroke:#181818;stroke-width:1.0;"/><line style="stroke:#181818;stroke-width:1.0;" x1="856.5" x2="1110.5" y1="690.6406" y2="690.6406"/><text fill="#000000" font-family="sans-serif" font-size="13" lengthAdjust="spacing" textLength="116" x="863.5" y="685.7842">f:= CrearReserva(...)</text><polygon fill="#181818" points="1188.5,716.9922,1198.5,720.9922,1188.5,724.9922,1192.5,720.9922" style="stroke:#181818;stroke-width:1.0;"/><line style="stroke:#181818;stroke-width:1.0;stroke-dasharray:2.0,2.0;" x1="1126.5" x2="1194.5" y1="720.9922" y2="720.9922"/><text fill="#000000" font-family="sans-serif" font-size="13" lengthAdjust="spacing" textLength="50" x="1133.5" y="716.1357">&#171;create&#187;</text><rect fill="#E2E2F0" height="31.6094" rx="2.5" ry="2.5" style="stroke:#181818;stroke-width:0.5;" width="67" x="1200.5" y="698.6406"/><text fill="#000000" font-family="sans-serif" font-size="14" lengthAdjust="spacing" textLength="53" x="1207.5" y="720.1738">Reserva</text><polygon fill="#181818" points="1137.5,743.25,1127.5,747.25,1137.5,751.25,1133.5,747.25" style="stroke:#181818;stroke-width:1.0;"/><line style="stroke:#181818;stroke-width:1.0;" x1="1131.5" x2="1233" y1="747.25" y2="747.25"/><polygon fill="#181818" points="867.5,773.6016,857.5,777.6016,867.5,781.6016,863.5,777.6016" style="stroke:#181818;stroke-width:1.0;"/><line style="stroke:#181818;stroke-width:1.0;stroke-dasharray:2.0,2.0;" x1="861.5" x2="1120.5" y1="777.6016" y2="777.6016"/><text fill="#000000" font-family="sans-serif" font-size="13" lengthAdjust="spacing" textLength="73" x="873.5" y="772.7451">confirmaci&#243;n</text><polygon fill="#181818" points="411.5,803.9531,401.5,807.9531,411.5,811.9531,407.5,807.9531" style="stroke:#181818;stroke-width:1.0;"/><line style="stroke:#181818;stroke-width:1.0;stroke-dasharray:2.0,2.0;" x1="405.5" x2="850.5" y1="807.9531" y2="807.9531"/><text fill="#000000" font-family="sans-serif" font-size="13" lengthAdjust="spacing" textLength="73" x="417.5" y="803.0967">confirmaci&#243;n</text><polygon fill="#181818" points="72.5,834.3047,62.5,838.3047,72.5,842.3047,68.5,838.3047" style="stroke:#181818;stroke-width:1.0;"/><line style="stroke:#181818;stroke-width:1.0;stroke-dasharray:2.0,2.0;" x1="66.5" x2="394.5" y1="838.3047" y2="838.3047"/><text fill="#000000" font-family="sans-serif" font-size="13" lengthAdjust="spacing" textLength="174" x="78.5" y="833.4482">"Reserva registrada con &#233;xito"</text><path d="M20,860.3047 L81,860.3047 L81,868.6563 L71,878.6563 L20,878.6563 L20,860.3047 " fill="#EEEEEE" style="stroke:#000000;stroke-width:1.5;"/><rect fill="none" height="93.0547" style="stroke:#000000;stroke-width:1.5;" width="467" x="20" y="860.3047"/><text fill="#000000" font-family="sans-serif" font-size="13" font-weight="bold" lengthAdjust="spacing" textLength="16" x="35" y="874.7998">alt</text><text fill="#000000" font-family="sans-serif" font-size="11" font-weight="bold" lengthAdjust="spacing" textLength="277" x="96" y="873.7236">[Uno de los campos no fue completado (Paso 9.A)]</text><polygon fill="#181818" points="72.5,911.0078,62.5,915.0078,72.5,919.0078,68.5,915.0078" style="stroke:#181818;stroke-width:1.0;"/><line style="stroke:#181818;stroke-width:1.0;" x1="66.5" x2="389.5" y1="915.0078" y2="915.0078"/><text fill="#000000" font-family="sans-serif" font-size="13" lengthAdjust="spacing" textLength="244" x="78.5" y="910.1514">Mensaje de error + foco en campo faltante</text><polygon fill="#181818" points="72.5,941.3594,62.5,945.3594,72.5,949.3594,68.5,945.3594" style="stroke:#181818;stroke-width:1.0;"/><line style="stroke:#181818;stroke-width:1.0;" x1="66.5" x2="394.5" y1="945.3594" y2="945.3594"/><text fill="#000000" font-family="sans-serif" font-size="13" lengthAdjust="spacing" textLength="133" x="78.5" y="940.5029">Se vuelve a pedir datos</text><path d="M20,967.3594 L81,967.3594 L81,975.7109 L71,985.7109 L20,985.7109 L20,967.3594 " fill="#EEEEEE" style="stroke:#000000;stroke-width:1.5;"/><rect fill="none" height="93.0547" style="stroke:#000000;stroke-width:1.5;" width="467" x="20" y="967.3594"/><text fill="#000000" font-family="sans-serif" font-size="13" font-weight="bold" lengthAdjust="spacing" textLength="16" x="35" y="981.8545">alt</text><text fill="#000000" font-family="sans-serif" font-size="11" font-weight="bold" lengthAdjust="spacing" textLength="184" x="96" y="980.7783">[Se rechaza la reserva (Paso 7.A)]</text><polygon fill="#181818" points="378.5,1018.0625,388.5,1022.0625,378.5,1026.0625,382.5,1022.0625" style="stroke:#181818;stroke-width:1.0;"/><line style="stroke:#181818;stroke-width:1.0;" x1="61.5" x2="384.5" y1="1022.0625" y2="1022.0625"/><text fill="#000000" font-family="sans-serif" font-size="13" lengthAdjust="spacing" textLength="125" x="68.5" y="1017.2061">Presiona CANCELAR</text><polygon fill="#181818" points="72.5,1048.4141,62.5,1052.4141,72.5,1056.4141,68.5,1052.4141" style="stroke:#181818;stroke-width:1.0;"/><line style="stroke:#181818;stroke-width:1.0;" x1="66.5" x2="394.5" y1="1052.4141" y2="1052.4141"/><text fill="#000000" font-family="sans-serif" font-size="13" lengthAdjust="spacing" textLength="155" x="78.5" y="1047.5576">Revertir cambios y finalizar</text><!--SRC=[jLRBRjim4BphAnO-vMNt41H5ZTI0gZXrWJmCk-cXHG-qj8ePqAH0qaQIFygvd-0VwrAIRJ5n72bjBuAqb7PdXxCZJdc2a2fb9-ek25XibOP8IOFw5Y78cBOyvXcJ5bhNNw4D8wIb1TC3Dk6MnLp9blVM5pIKedpBMobZf-7Ljd0GhAksUo_Nwi8f1HdeSWccwpKqm42gsKGZK4zp2TCvcWmJrnLVC8ixMWXUN79mLj2wSCaMU4Db6KJNx-526QlfgMyiIvIhEgZ02HAiKva92sTYVgjWgBbqh8WW0AX9Xq61iRltk7X7P1o2Pl8cHvLYF6M6ajR10x2J2s-3kv1sFsrvS- -S4oLLClQhrNsHq8eNS5KsOdbZYOhQABnvWlRp7gf9oc2IqrNPG3_V4xoxjsYCC2Cbab8a26PyoMxsZqf2ngNDRs8bOTGVzqVVmzFGH_ACl9hI7Ij1CsSPP3GyXM32g3_y5ev0KQre4Fu8HvJEiKYIl5G4zDu7ct2JASadWkxtXimeEEw4ZlQT83mKhLVoTZgTLgE4PrmIEm9Y1yVDlL7vztH1cGHbD-CrpUlAoz-IxA9IUztIvuOj3LxCY188MeQQA_87BXCUar4qQt2Xn0ATuvHIeIgRtcgwnB3SyjMElq4r2REAj3jVFZfFXJsMeH0yKKUbvnw1HR5yJ9LK-_M1HMgM2QJqWf8VqoRECcNUua6HHhQARB2Lq0WPhe3zXGbvDKYezGsdV3muwCB9IKnfBFPwMxwkVFe4m5OtUjtQo4TIhcTi9Pj_usWxilgiqXW63GPfLLxZ3NT-cR3S29UFTzpcKrFlZqgp0SL_zLhcdk34LKZBpMSwHqfRw8wcifZwZuMHxO3wSygJ1EMl3U9wFzJQetQ1qh3R_F22MjCvx90EPh5o9fA3XvHQeYCJDfXUXCKSoJ_8FcXgkIx6k2wJpcIWf99IQNUCUA1PNP-_Il8-EFB-2tLD_IqABwF-UHE36o6vgoLcYEC99uNSGyeb4_o1wOOy_G40]--></g></svg>