<?xml version="1.0" standalone="no"?>
<!DOCTYPE svg PUBLIC "-//W3C//DTD SVG 20010904//EN"
 "http://www.w3.org/TR/2001/REC-SVG-20010904/DTD/svg10.dtd">
<svg version="1.0" xmlns="http://www.w3.org/2000/svg"
 width="1024.000000pt" height="1024.000000pt" viewBox="0 0 1024.000000 1024.000000"
 preserveAspectRatio="xMidYMid meet">

<g transform="translate(0.000000,1024.000000) scale(0.100000,-0.100000)"
fill="#000000" stroke="none">
<path d="M5071 8374 c-57 -47 -49 -136 14 -175 l25 -15 -38 -75 c-87 -173
-221 -299 -320 -299 -49 0 -114 28 -185 80 l-67 50 21 29 c17 23 21 39 16 71
-6 49 -27 75 -73 90 -68 23 -144 -31 -144 -101 0 -39 40 -92 78 -104 26 -7 34
-17 42 -45 14 -51 78 -324 92 -388 9 -42 14 -52 27 -47 9 4 53 17 99 30 316
92 679 89 987 -9 43 -14 80 -24 81 -23 1 1 27 109 59 240 51 212 59 237 77
237 11 0 35 15 54 34 27 27 34 42 34 73 0 98 -114 146 -183 77 -37 -37 -43
-76 -19 -125 l20 -40 -42 -33 c-97 -78 -175 -105 -244 -87 -87 24 -197 139
-273 285 -40 75 -41 80 -23 93 10 7 21 13 26 13 13 0 38 58 38 91 0 22 -10 41
-34 65 -44 44 -99 47 -145 8z"/>
<path d="M4945 7370 c-230 -36 -428 -119 -610 -256 -88 -66 -238 -219 -293
-301 l-43 -63 -244 0 c-298 0 -285 6 -285 -125 0 -46 5 -96 12 -110 10 -22 17
-25 60 -25 l48 0 0 -710 0 -710 -51 1 c-40 2 -55 -2 -65 -16 -18 -24 -19 -166
-2 -183 9 -9 179 -12 704 -12 l693 0 3 283 c3 267 4 284 25 323 51 95 148 149
255 142 74 -5 129 -29 178 -78 73 -73 75 -83 78 -392 l3 -278 680 0 c450 0
687 4 700 10 17 9 19 22 19 100 0 59 -4 91 -12 96 -7 5 -33 8 -58 9 l-45 0 -3
713 -2 712 50 0 c63 0 70 12 70 124 0 132 13 126 -280 126 l-239 0 -63 83
c-199 264 -485 448 -803 518 -104 23 -382 34 -480 19z m477 -283 c289 -76 556
-285 674 -527 l29 -60 48 -1 c26 -1 52 -3 57 -4 6 -1 75 -3 155 -4 l145 -1 0
-52 c0 -29 -3 -70 -7 -91 l-6 -38 -260 3 c-219 3 -261 5 -268 18 -4 8 -29 59
-55 112 -56 116 -114 191 -214 275 -235 198 -568 264 -848 169 -191 -66 -363
-190 -461 -335 -21 -31 -59 -97 -84 -148 l-47 -92 -250 -1 c-137 0 -256 -3
-264 -6 -16 -6 -26 35 -26 116 l0 57 77 7 c42 3 133 6 203 6 l128 0 13 33 c26
61 132 209 200 277 152 152 337 252 559 301 127 28 368 21 502 -14z m-184
-629 c23 -11 54 -35 68 -54 47 -61 53 -95 54 -301 l0 -193 -220 0 -220 0 0
203 c0 232 7 257 80 320 69 58 148 67 238 25z m-826 -480 c23 -13 56 -43 73
-66 l30 -44 3 -399 3 -399 -216 0 -215 0 0 388 c0 357 2 390 19 428 21 45 72
92 123 111 46 18 130 9 180 -19z m1654 13 c53 -24 109 -91 123 -146 7 -28 11
-176 11 -409 l0 -366 -220 0 -220 0 0 385 c0 420 1 428 58 489 60 63 167 84
248 47z"/>
<path d="M1163 4233 c-12 -31 3 -57 37 -65 73 -18 70 5 70 -522 0 -529 2 -511
-71 -522 -36 -6 -39 -9 -39 -40 l0 -34 245 0 245 0 0 34 c0 32 -2 34 -45 40
-24 4 -54 15 -67 26 -22 18 -23 25 -26 193 l-3 174 118 6 c190 11 279 44 374
138 70 70 99 139 99 238 0 146 -59 240 -192 302 l-73 34 -170 2 c-491 8 -498
8 -502 -4z m569 -96 c46 -20 105 -88 119 -139 16 -60 7 -204 -15 -248 -25 -48
-64 -88 -109 -111 -41 -22 -149 -36 -191 -25 l-26 6 0 264 c0 243 1 265 18
270 30 9 170 -3 204 -17z"/>
<path d="M2293 4233 c-12 -32 2 -57 37 -64 72 -15 70 3 70 -515 0 -333 -3
-470 -12 -489 -8 -18 -24 -29 -55 -36 -40 -11 -43 -14 -43 -45 l0 -34 239 0
c222 0 239 1 236 18 -2 9 -4 24 -4 33 -1 11 -14 18 -39 23 -22 3 -48 16 -63
32 -23 25 -24 30 -27 215 -4 214 -7 206 74 194 l45 -6 103 -212 c62 -127 115
-223 132 -239 51 -47 92 -58 224 -58 l120 0 0 30 c0 25 -6 32 -44 48 -24 11
-54 35 -68 53 -39 52 -271 429 -267 433 2 2 30 15 61 29 72 32 146 99 171 156
25 58 27 168 3 238 -32 95 -131 168 -261 192 -86 16 -626 20 -632 4z m532 -94
c55 -15 120 -82 135 -139 19 -71 8 -179 -24 -234 -41 -70 -98 -99 -208 -104
l-88 -4 0 246 0 246 73 0 c39 0 90 -5 112 -11z"/>
<path d="M3712 4242 l-203 -2 3 -32 c2 -26 9 -33 35 -40 17 -5 41 -20 52 -34
21 -26 21 -37 21 -489 0 -517 2 -499 -70 -514 -32 -6 -35 -10 -38 -44 l-3 -37
424 0 424 0 12 123 c7 67 14 137 18 155 5 31 4 32 -28 32 -32 -1 -36 -4 -63
-66 -49 -110 -92 -130 -302 -140 -124 -7 -131 -6 -136 12 -3 11 -6 113 -7 228
l-2 208 113 -3 c133 -5 159 -16 190 -85 18 -41 22 -45 51 -42 l32 3 3 178 2
177 -32 0 c-28 0 -36 -6 -53 -37 -36 -66 -62 -77 -186 -81 l-109 -4 0 153 c0
85 -3 184 -7 222 l-6 67 106 0 c191 0 254 -29 298 -135 22 -55 44 -68 75 -47
9 6 5 132 -8 250 l-3 23 -200 2 c-110 1 -291 1 -403 -1z"/>
<path d="M4614 4241 c-2 -2 -4 -17 -4 -32 0 -22 6 -29 30 -34 44 -10 78 -42
85 -79 11 -54 -15 -864 -28 -905 -10 -31 -20 -39 -64 -56 -49 -18 -53 -23 -53
-52 l0 -33 180 0 180 0 0 34 c0 31 -3 34 -43 44 -47 12 -70 33 -82 71 -8 27 4
775 13 767 7 -7 147 -337 282 -664 l105 -253 43 3 44 3 54 135 c103 253 317
755 325 764 5 6 9 -35 10 -95 0 -57 2 -113 4 -124 1 -11 6 -136 9 -278 7 -296
4 -311 -62 -322 -57 -10 -57 -10 -56 -46 l1 -34 231 -3 232 -2 0 40 c0 38 -2
40 -30 40 -19 0 -40 9 -54 23 -20 21 -23 35 -29 152 -4 72 -10 286 -14 476
l-6 346 22 22 c12 12 35 24 51 28 26 5 30 10 30 37 l0 31 -163 -3 -162 -3
-129 -307 c-168 -399 -223 -517 -237 -517 -11 0 -379 794 -379 816 0 8 -328
18 -336 10z"/>
<path d="M6292 4214 c3 -35 6 -39 38 -45 73 -15 70 4 70 -523 0 -528 3 -509
-70 -521 -38 -6 -40 -9 -40 -41 l0 -34 231 0 230 0 -3 37 c-3 35 -5 38 -42 44
-22 4 -45 15 -53 25 -10 14 -13 113 -13 490 l0 473 25 20 c14 11 39 23 55 26
26 6 30 11 30 41 l0 34 -117 0 c-65 0 -169 3 -231 7 l-113 6 3 -39z"/>
<path d="M6983 4233 c-12 -30 3 -55 41 -68 21 -8 44 -19 50 -25 18 -18 24
-179 23 -582 -2 -371 -2 -378 -23 -399 -12 -11 -37 -24 -55 -28 -30 -6 -34
-11 -37 -44 l-3 -37 424 0 424 0 12 128 c7 70 14 139 17 155 5 25 3 27 -28 27
-31 0 -35 -4 -53 -52 -27 -71 -79 -122 -141 -137 -27 -7 -106 -15 -176 -18
l-128 -6 0 228 0 227 108 -3 c127 -5 153 -17 183 -85 20 -44 36 -52 73 -38 14
5 16 31 16 180 l0 174 -33 0 c-27 0 -36 -6 -52 -36 -35 -65 -66 -78 -187 -83
l-108 -3 0 221 0 221 100 0 c183 0 247 -30 291 -135 17 -42 28 -55 43 -55 42
0 44 9 34 140 -5 69 -10 128 -11 133 -1 4 -181 8 -401 10 -298 1 -400 -1 -403
-10z"/>
<path d="M8092 4211 c3 -29 8 -36 34 -43 17 -4 39 -17 50 -29 18 -20 19 -42
19 -494 0 -443 -1 -474 -18 -493 -10 -11 -34 -23 -53 -26 -31 -6 -34 -10 -34
-41 l0 -35 235 0 235 0 0 34 c0 32 -2 34 -44 40 -24 4 -51 15 -60 25 -25 27
-36 111 -36 267 0 162 1 162 81 149 l41 -7 102 -212 c139 -286 151 -296 364
-296 l112 0 0 34 c0 30 -4 34 -31 40 -18 3 -46 21 -63 40 -31 33 -291 445
-284 450 1 2 33 17 70 34 77 35 150 104 170 160 7 20 13 73 12 117 0 88 -19
144 -68 202 -33 39 -128 88 -199 102 -29 6 -184 12 -345 13 l-293 3 3 -34z
m539 -76 c91 -32 131 -102 131 -225 0 -92 -22 -150 -75 -197 -45 -40 -91 -53
-184 -53 l-73 0 0 245 0 245 79 0 c45 0 97 -7 122 -15z"/>
<path d="M4516 2539 c-68 -11 -134 -55 -171 -113 -27 -44 -30 -58 -30 -125 0
-54 6 -86 19 -111 44 -84 115 -130 212 -138 158 -12 274 92 274 247 0 162
-133 267 -304 240z m95 -90 c70 -24 109 -80 109 -157 0 -86 -66 -152 -153
-152 -142 0 -211 190 -101 278 52 41 89 49 145 31z"/>
<path d="M3640 2538 c0 -2 -1 -110 -3 -241 l-2 -237 48 0 47 0 0 100 0 100
110 0 110 0 0 -100 0 -100 45 0 45 0 0 240 0 240 -45 0 -45 0 0 -95 0 -95
-100 0 c-55 0 -103 -1 -107 -2 -5 -2 -9 41 -11 95 l-3 97 -44 0 c-25 0 -45 -1
-45 -2z"/>
<path d="M5707 2533 c-4 -3 -7 -111 -7 -240 l0 -233 170 0 170 0 0 40 0 40
-118 0 c-65 0 -121 2 -123 4 -2 2 -2 29 -1 60 l4 56 109 0 109 0 0 45 0 45
-112 0 -113 0 1 47 1 48 122 3 121 3 0 44 0 45 -163 0 c-90 0 -167 -3 -170 -7z"/>
<path d="M6330 2301 l0 -241 163 0 163 0 -2 41 -2 41 -111 -1 -111 -2 -2 198
-3 198 -47 3 -48 3 0 -240z"/>
<path d="M5060 2490 l0 -40 70 0 70 0 2 -197 3 -197 45 0 45 0 3 197 2 197 75
0 75 0 0 40 0 40 -195 0 -195 0 0 -40z"/>
</g>
</svg>
