<svg xmlns="http://www.w3.org/2000/svg" xmlns:xlink="http://www.w3.org/1999/xlink" contentStyleType="text/css" data-diagram-type="SEQUENCE" height="628px" preserveAspectRatio="none" style="width:996px;height:628px;background:#FFFFFF;" version="1.1" viewBox="0 0 996 628" width="996px" zoomAndPan="magnify"><title>Diagrama de Secuencia - CU05: Mostrar Estado de Habitaciones</title><defs/><g><text fill="#000000" font-family="sans-serif" font-size="14" font-weight="bold" lengthAdjust="spacing" textLength="504.8271" x="246.928" y="27.9951">Diagrama de Secuencia - CU05: Mostrar Estado de Habitaciones</text><g><title>UI - MostrarEstadoHabitaciones</title><rect fill="#FFFFFF" height="117.3984" style="stroke:#181818;stroke-width:1;" width="10" x="375.0269" y="149.7266"/></g><g><title>UI - MostrarEstadoHabitaciones</title><rect fill="#FFFFFF" height="29.1328" style="stroke:#181818;stroke-width:1;" width="10" x="375.0269" y="320.3906"/></g><g><title>UI - MostrarEstadoHabitaciones</title><rect fill="#FFFFFF" height="29.1328" style="stroke:#181818;stroke-width:1;" width="10" x="375.0269" y="407.4609"/></g><g><title>UI - MostrarEstadoHabitaciones</title><rect fill="#FFFFFF" height="29.1328" style="stroke:#181818;stroke-width:1;" width="10" x="375.0269" y="493.3984"/></g><g><title>GestorHabitacion</title><rect fill="#FFFFFF" height="83.2656" style="stroke:#181818;stroke-width:1;" width="10" x="776.5581" y="237.125"/></g><g><title>GestorHabitacion</title><rect fill="#FFFFFF" height="58.2656" style="stroke:#181818;stroke-width:1;" width="10" x="776.5581" y="378.3281"/></g><g><title>GestorHabitacion</title><rect fill="#FFFFFF" height="57.1328" style="stroke:#181818;stroke-width:1;" width="10" x="776.5581" y="465.3984"/></g><g><title>HabitacionDAO</title><rect fill="#FFFFFF" height="14" style="stroke:#181818;stroke-width:1;" width="10" x="914.5063" y="479.3984"/></g><rect fill="none" height="248.4063" style="stroke:#000000;stroke-width:1.5;" width="979.6831" x="10" y="282.125"/><g><title>Conserje</title><rect fill="#000000" fill-opacity="0.00000" height="428.9375" width="8" x="49.6899" y="118.5938"/><line style="stroke:#181818;stroke-width:0.5;stroke-dasharray:5.0,5.0;" x1="53" x2="53" y1="118.5938" y2="547.5313"/></g><g><title>UI - MostrarEstadoHabitaciones</title><rect fill="#000000" fill-opacity="0.00000" height="428.9375" width="8" x="376.0269" y="118.5938"/><line style="stroke:#181818;stroke-width:0.5;stroke-dasharray:5.0,5.0;" x1="379.8315" x2="379.8315" y1="118.5938" y2="547.5313"/></g><g><title>GestorHabitacion</title><rect fill="#000000" fill-opacity="0.00000" height="428.9375" width="8" x="777.5581" y="118.5938"/><line style="stroke:#181818;stroke-width:0.5;stroke-dasharray:5.0,5.0;" x1="780.7866" x2="780.7866" y1="118.5938" y2="547.5313"/></g><g><title>HabitacionDAO</title><rect fill="#000000" fill-opacity="0.00000" height="428.9375" width="8" x="915.5063" y="118.5938"/><line style="stroke:#181818;stroke-width:0.5;stroke-dasharray:5.0,5.0;" x1="919.3296" x2="919.3296" y1="118.5938" y2="547.5313"/></g><g class="participant participant-head" data-participant="Conserje"><text fill="#000000" font-family="sans-serif" font-size="14" lengthAdjust="spacing" textLength="61.3799" x="20" y="115.292">Conserje</text><ellipse cx="53.6899" cy="50.7969" fill="#E2E2F0" rx="8" ry="8" style="stroke:#181818;stroke-width:0.5;"/><path d="M53.6899,58.7969 L53.6899,85.7969 M40.6899,66.7969 L66.6899,66.7969 M53.6899,85.7969 L40.6899,100.7969 M53.6899,85.7969 L66.6899,100.7969" fill="none" style="stroke:#181818;stroke-width:0.5;"/></g><g class="participant participant-tail" data-participant="Conserje"><text fill="#000000" font-family="sans-serif" font-size="14" lengthAdjust="spacing" textLength="61.3799" x="20" y="559.5264">Conserje</text><ellipse cx="53.6899" cy="571.3281" fill="#E2E2F0" rx="8" ry="8" style="stroke:#181818;stroke-width:0.5;"/><path d="M53.6899,579.3281 L53.6899,606.3281 M40.6899,587.3281 L66.6899,587.3281 M53.6899,606.3281 L40.6899,621.3281 M53.6899,606.3281 L66.6899,621.3281" fill="none" style="stroke:#181818;stroke-width:0.5;"/></g><g class="participant participant-head" data-participant="UI - MostrarEstadoHabitaciones"><rect fill="#E2E2F0" height="30.2969" rx="2.5" ry="2.5" style="stroke:#181818;stroke-width:0.5;" width="234.3906" x="262.8315" y="87.2969"/><text fill="#000000" font-family="sans-serif" font-size="14" lengthAdjust="spacing" textLength="220.3906" x="269.8315" y="107.292">UI - MostrarEstadoHabitaciones</text></g><g class="participant participant-tail" data-participant="UI - MostrarEstadoHabitaciones"><rect fill="#E2E2F0" height="30.2969" rx="2.5" ry="2.5" style="stroke:#181818;stroke-width:0.5;" width="234.3906" x="262.8315" y="546.5313"/><text fill="#000000" font-family="sans-serif" font-size="14" lengthAdjust="spacing" textLength="220.3906" x="269.8315" y="566.5264">UI - MostrarEstadoHabitaciones</text></g><g class="participant participant-head" data-participant="GestorHabitacion"><rect fill="#E2E2F0" height="30.2969" rx="2.5" ry="2.5" style="stroke:#181818;stroke-width:0.5;" width="135.543" x="713.7866" y="87.2969"/><text fill="#000000" font-family="sans-serif" font-size="14" lengthAdjust="spacing" textLength="121.543" x="720.7866" y="107.292">GestorHabitacion</text></g><g class="participant participant-tail" data-participant="GestorHabitacion"><rect fill="#E2E2F0" height="30.2969" rx="2.5" ry="2.5" style="stroke:#181818;stroke-width:0.5;" width="135.543" x="713.7866" y="546.5313"/><text fill="#000000" font-family="sans-serif" font-size="14" lengthAdjust="spacing" textLength="121.543" x="720.7866" y="566.5264">GestorHabitacion</text></g><g class="participant participant-head" data-participant="HabitacionDAO"><rect fill="#E2E2F0" height="30.2969" rx="2.5" ry="2.5" style="stroke:#181818;stroke-width:0.5;" width="120.3535" x="859.3296" y="87.2969"/><text fill="#000000" font-family="sans-serif" font-size="14" lengthAdjust="spacing" textLength="106.3535" x="866.3296" y="107.292">HabitacionDAO</text></g><g class="participant participant-tail" data-participant="HabitacionDAO"><rect fill="#E2E2F0" height="30.2969" rx="2.5" ry="2.5" style="stroke:#181818;stroke-width:0.5;" width="120.3535" x="859.3296" y="546.5313"/><text fill="#000000" font-family="sans-serif" font-size="14" lengthAdjust="spacing" textLength="106.3535" x="866.3296" y="566.5264">HabitacionDAO</text></g><g><title>UI - MostrarEstadoHabitaciones</title><rect fill="#FFFFFF" height="117.3984" style="stroke:#181818;stroke-width:1;" width="10" x="375.0269" y="149.7266"/></g><g><title>UI - MostrarEstadoHabitaciones</title><rect fill="#FFFFFF" height="29.1328" style="stroke:#181818;stroke-width:1;" width="10" x="375.0269" y="320.3906"/></g><g><title>UI - MostrarEstadoHabitaciones</title><rect fill="#FFFFFF" height="29.1328" style="stroke:#181818;stroke-width:1;" width="10" x="375.0269" y="407.4609"/></g><g><title>UI - MostrarEstadoHabitaciones</title><rect fill="#FFFFFF" height="29.1328" style="stroke:#181818;stroke-width:1;" width="10" x="375.0269" y="493.3984"/></g><g><title>GestorHabitacion</title><rect fill="#FFFFFF" height="83.2656" style="stroke:#181818;stroke-width:1;" width="10" x="776.5581" y="237.125"/></g><g><title>GestorHabitacion</title><rect fill="#FFFFFF" height="58.2656" style="stroke:#181818;stroke-width:1;" width="10" x="776.5581" y="378.3281"/></g><g><title>GestorHabitacion</title><rect fill="#FFFFFF" height="57.1328" style="stroke:#181818;stroke-width:1;" width="10" x="776.5581" y="465.3984"/></g><g><title>HabitacionDAO</title><rect fill="#FFFFFF" height="14" style="stroke:#181818;stroke-width:1;" width="10" x="914.5063" y="479.3984"/></g><g class="message" data-participant-1="Conserje" data-participant-2="UI - MostrarEstadoHabitaciones"><polygon fill="#181818" points="363.0269,145.7266,373.0269,149.7266,363.0269,153.7266,367.0269,149.7266" style="stroke:#181818;stroke-width:1;"/><line style="stroke:#181818;stroke-width:1;" x1="53.6899" x2="369.0269" y1="149.7266" y2="149.7266"/><text fill="#000000" font-family="sans-serif" font-size="13" lengthAdjust="spacing" textLength="258.0703" x="60.6899" y="144.6606">Solicita mostrar estado de habitaciones</text></g><g class="message" data-participant-1="UI - MostrarEstadoHabitaciones" data-participant-2="Conserje"><polygon fill="#181818" points="64.6899,174.8594,54.6899,178.8594,64.6899,182.8594,60.6899,178.8594" style="stroke:#181818;stroke-width:1;"/><line style="stroke:#181818;stroke-width:1;" x1="58.6899" x2="374.0269" y1="178.8594" y2="178.8594"/><text fill="#000000" font-family="sans-serif" font-size="13" lengthAdjust="spacing" textLength="297.3369" x="70.6899" y="173.7935">Mostrar pantalla para aplicar rango de fechas</text></g><g class="message" data-participant-1="Conserje" data-participant-2="UI - MostrarEstadoHabitaciones"><polygon fill="#181818" points="363.0269,203.9922,373.0269,207.9922,363.0269,211.9922,367.0269,207.9922" style="stroke:#181818;stroke-width:1;"/><line style="stroke:#181818;stroke-width:1;" x1="53.6899" x2="369.0269" y1="207.9922" y2="207.9922"/><text fill="#000000" font-family="sans-serif" font-size="13" lengthAdjust="spacing" textLength="103.4858" x="60.6899" y="202.9263">Ingresar Fechas</text></g><g class="message" data-participant-1="UI - MostrarEstadoHabitaciones" data-participant-2="GestorHabitacion"><polygon fill="#181818" points="764.5581,233.125,774.5581,237.125,764.5581,241.125,768.5581,237.125" style="stroke:#181818;stroke-width:1;"/><line style="stroke:#181818;stroke-width:1;" x1="385.0269" x2="770.5581" y1="237.125" y2="237.125"/><text fill="#000000" font-family="sans-serif" font-size="13" lengthAdjust="spacing" textLength="372.5313" x="392.0269" y="232.0591">f:=mostrarEstadoHabitaciones(Date: desde, Date: hasta)</text></g><path d="M10,282.125 L74.4429,282.125 L74.4429,289.2578 L64.4429,299.2578 L10,299.2578 L10,282.125" fill="#EEEEEE" style="stroke:#000000;stroke-width:1.5;"/><rect fill="none" height="248.4063" style="stroke:#000000;stroke-width:1.5;" width="979.6831" x="10" y="282.125"/><text fill="#000000" font-family="sans-serif" font-size="13" font-weight="bold" lengthAdjust="spacing" textLength="19.4429" x="25" y="295.1919">alt</text><text fill="#000000" font-family="sans-serif" font-size="11" font-weight="bold" lengthAdjust="spacing" textLength="142.291" x="89.4429" y="294.3354">[Fecha Desde Invalida]</text><g class="message" data-participant-1="GestorHabitacion" data-participant-2="UI - MostrarEstadoHabitaciones"><polygon fill="#181818" points="396.0269,316.3906,386.0269,320.3906,396.0269,324.3906,392.0269,320.3906" style="stroke:#181818;stroke-width:1;"/><line style="stroke:#181818;stroke-width:1;" x1="390.0269" x2="780.5581" y1="320.3906" y2="320.3906"/><text fill="#000000" font-family="sans-serif" font-size="13" lengthAdjust="spacing" textLength="269.9468" x="402.0269" y="315.3247">mostrar mensaje("Fecha desde invalida")</text></g><g class="message" data-participant-1="UI - MostrarEstadoHabitaciones" data-participant-2="Conserje"><polygon fill="#181818" points="64.6899,345.5234,54.6899,349.5234,64.6899,353.5234,60.6899,349.5234" style="stroke:#181818;stroke-width:1;"/><line style="stroke:#181818;stroke-width:1;" x1="58.6899" x2="379.0269" y1="349.5234" y2="349.5234"/><text fill="#000000" font-family="sans-serif" font-size="13" lengthAdjust="spacing" textLength="158.4312" x="70.6899" y="344.4575">Solicita reingresar datos</text></g><line style="stroke:#000000;stroke-width:1;stroke-dasharray:2.0,2.0;" x1="10" x2="989.6831" y1="358.5234" y2="358.5234"/><text fill="#000000" font-family="sans-serif" font-size="11" font-weight="bold" lengthAdjust="spacing" textLength="139.6753" x="15" y="368.7339">[Fecha Hasta Invalida]</text><g class="message" data-participant-1="GestorHabitacion" data-participant-2="UI - MostrarEstadoHabitaciones"><polygon fill="#181818" points="396.0269,403.4609,386.0269,407.4609,396.0269,411.4609,392.0269,407.4609" style="stroke:#181818;stroke-width:1;"/><line style="stroke:#181818;stroke-width:1;" x1="390.0269" x2="775.5581" y1="407.4609" y2="407.4609"/><text fill="#000000" font-family="sans-serif" font-size="13" lengthAdjust="spacing" textLength="266.7158" x="402.0269" y="402.395">mostrar mensaje("Fecha hasta invalida")</text></g><g class="message" data-participant-1="UI - MostrarEstadoHabitaciones" data-participant-2="Conserje"><polygon fill="#181818" points="64.6899,432.5938,54.6899,436.5938,64.6899,440.5938,60.6899,436.5938" style="stroke:#181818;stroke-width:1;"/><line style="stroke:#181818;stroke-width:1;" x1="58.6899" x2="379.0269" y1="436.5938" y2="436.5938"/><text fill="#000000" font-family="sans-serif" font-size="13" lengthAdjust="spacing" textLength="158.4312" x="70.6899" y="431.5278">Solicita reingresar datos</text></g><line style="stroke:#000000;stroke-width:1;stroke-dasharray:2.0,2.0;" x1="10" x2="989.6831" y1="445.5938" y2="445.5938"/><text fill="#000000" font-family="sans-serif" font-size="11" font-weight="bold" lengthAdjust="spacing" textLength="98.7744" x="15" y="455.8042">[Flujo Principal]</text><g class="message" data-participant-1="GestorHabitacion" data-participant-2="HabitacionDAO"><polygon fill="#181818" points="902.5063,475.3984,912.5063,479.3984,902.5063,483.3984,906.5063,479.3984" style="stroke:#181818;stroke-width:1;"/><line style="stroke:#181818;stroke-width:1;stroke-dasharray:2.0,2.0;" x1="786.5581" x2="908.5063" y1="479.3984" y2="479.3984"/></g><g class="message" data-participant-1="HabitacionDAO" data-participant-2="GestorHabitacion"><polygon fill="#181818" points="797.5581,489.3984,787.5581,493.3984,797.5581,497.3984,793.5581,493.3984" style="stroke:#181818;stroke-width:1;"/><line style="stroke:#181818;stroke-width:1;stroke-dasharray:2.0,2.0;" x1="791.5581" x2="918.5063" y1="493.3984" y2="493.3984"/></g><g class="message" data-participant-1="GestorHabitacion" data-participant-2="UI - MostrarEstadoHabitaciones"><polygon fill="#181818" points="391.0269,518.5313,381.0269,522.5313,391.0269,526.5313,387.0269,522.5313" style="stroke:#181818;stroke-width:1;"/><line style="stroke:#181818;stroke-width:1;" x1="385.0269" x2="780.5581" y1="522.5313" y2="522.5313"/><text fill="#000000" font-family="sans-serif" font-size="13" lengthAdjust="spacing" textLength="179.8989" x="397.0269" y="517.4653">mostrarGrillaHabitaciones()</text></g><!--SRC=[nLJ9Ri8m4BtxAqOvWLIaNdg9LAIAjC2XQYN4gUfX6a_1oB6HRVZ-EWjaGGb9YzHRlCoRjqpiX9C4aS2DmGI14wmeFf2A1S84PklxXn1UjNK63JnRXrodTnRu9Hp6GYkoZ67ij85WffKbiwE0xT4u4OizAWV1Ukc12eWSeLhTk3mdwx7A2utZyY1wUWiOExM4oVHg8mXXfQM7SWX9eOZEYhPLHLwGEAAZw-GPkzhMKplJBBrCzQ2Kw3yC0kuzCRzhK6qoEjyKRz4ErRTK6qFMuxpavVtODJttGD_XOz9MCugyCw4dQJdTGRxmpHoEIz-Qa8nn6c8gIfThW2XjuuKTKGgEZ5sGxUVCAV24bCKTZO8SFHC1ea0FnbMQ5nhw2nWu4-UnD2HE2N9qsWvqZQIbmhP56aYdRHzRmJcfpsaFv7PFRXj7DaRLEFx3yyuP-4qWyh3Jy6w4IbynsPr5xO4RPloalRg-NrjbTPs_QnleLVr_cusv4Vvvh3qyunjcGuh_0000]--></g></svg>