<svg xmlns="http://www.w3.org/2000/svg" xmlns:xlink="http://www.w3.org/1999/xlink" contentStyleType="text/css" data-diagram-type="SEQUENCE" height="988px" preserveAspectRatio="none" style="width:1487px;height:988px;background:#FFFFFF;" version="1.1" viewBox="0 0 1487 988" width="1487px" zoomAndPan="magnify"><title>Diagrama de Secuencia - CU09: Dar de Alta Huésped</title><defs/><g><text fill="#000000" font-family="sans-serif" font-size="14" font-weight="bold" lengthAdjust="spacing" textLength="415.4814" x="537.158" y="27.9951">Diagrama de Secuencia - CU09: Dar de Alta Huésped</text><g><title>=UI - Dar de Alta Huésped</title><rect fill="#FFFFFF" height="216.0625" style="stroke:#181818;stroke-width:1;" width="10" x="419.8901" y="164.8594"/></g><g><title>=UI - Dar de Alta Huésped</title><rect fill="#FFFFFF" height="111.5313" style="stroke:#181818;stroke-width:1;" width="10" x="419.8901" y="845.0781"/></g><g><title>=:GestorPersona</title><rect fill="#FFFFFF" height="96.3984" style="stroke:#181818;stroke-width:1;" width="10" x="977.104" y="417.0547"/></g><g><title>=:GestorPersona</title><rect fill="#FFFFFF" height="303.6875" style="stroke:#181818;stroke-width:1;" width="10" x="977.104" y="668.9219"/></g><g><title>=:PersonaDAO</title><rect fill="#FFFFFF" height="38.1328" style="stroke:#181818;stroke-width:1;" width="10" x="1197.1431" y="446.1875"/></g><g><title>=:PersonaDAO</title><rect fill="#FFFFFF" height="303.6875" style="stroke:#181818;stroke-width:1;" width="10" x="1197.1431" y="668.9219"/></g><g><title>=Huesped</title><rect fill="#FFFFFF" height="49.9531" style="stroke:#181818;stroke-width:1;" width="10" x="1334.9912" y="729.8594"/></g><rect fill="none" height="46.2656" style="stroke:#000000;stroke-width:1.5;" width="547.2925" x="20" y="253.2578"/><rect fill="none" height="75.3984" style="stroke:#000000;stroke-width:1.5;" width="547.2925" x="20" y="313.5234"/><rect fill="none" height="340.625" style="stroke:#000000;stroke-width:1.5;" width="1470.7974" x="10" y="461.1875"/><rect fill="none" height="90.2031" style="stroke:#000000;stroke-width:1.5;" width="1265.9883" x="20" y="586.7188"/><rect fill="none" height="46.2656" style="stroke:#000000;stroke-width:1.5;" width="547.2925" x="20" y="918.3438"/><g><title>Conserje</title><rect fill="#000000" fill-opacity="0.00000" height="863.0156" width="8" x="59.6899" y="118.5938"/><line style="stroke:#181818;stroke-width:0.5;stroke-dasharray:5.0,5.0;" x1="63" x2="63" y1="118.5938" y2="981.6094"/></g><g><title>=UI - Dar de Alta Huésped</title><rect fill="#000000" fill-opacity="0.00000" height="863.0156" width="8" x="420.8901" y="118.5938"/><line style="stroke:#181818;stroke-width:0.5;stroke-dasharray:5.0,5.0;" x1="424.4878" x2="424.4878" y1="118.5938" y2="981.6094"/></g><g><title>=:GestorPersona</title><rect fill="#000000" fill-opacity="0.00000" height="863.0156" width="8" x="978.104" y="118.5938"/><line style="stroke:#181818;stroke-width:0.5;stroke-dasharray:5.0,5.0;" x1="981.5737" x2="981.5737" y1="118.5938" y2="981.6094"/></g><g><title>=:PersonaDAO</title><rect fill="#000000" fill-opacity="0.00000" height="863.0156" width="8" x="1198.1431" y="118.5938"/><line style="stroke:#181818;stroke-width:0.5;stroke-dasharray:5.0,5.0;" x1="1201.2979" x2="1201.2979" y1="118.5938" y2="981.6094"/></g><g><title>=Huesped</title><rect fill="#000000" fill-opacity="0.00000" height="249.9063" width="8" x="1335.9912" y="731.7031"/><line style="stroke:#181818;stroke-width:0.5;stroke-dasharray:5.0,5.0;" x1="1339.6021" x2="1339.6021" y1="731.7031" y2="981.6094"/></g><g><title>Personas</title><rect fill="#000000" fill-opacity="0.00000" height="863.0156" width="8" x="1432.0889" y="118.5938"/><line style="stroke:#181818;stroke-width:0.5;stroke-dasharray:5.0,5.0;" x1="1435.3804" x2="1435.3804" y1="118.5938" y2="981.6094"/></g><g class="participant participant-head" data-participant="Conserje"><text fill="#000000" font-family="sans-serif" font-size="14" lengthAdjust="spacing" textLength="61.3799" x="30" y="115.292">Conserje</text><ellipse cx="63.6899" cy="50.7969" fill="#E2E2F0" rx="8" ry="8" style="stroke:#181818;stroke-width:0.5;"/><path d="M63.6899,58.7969 L63.6899,85.7969 M50.6899,66.7969 L76.6899,66.7969 M63.6899,85.7969 L50.6899,100.7969 M63.6899,85.7969 L76.6899,100.7969" fill="none" style="stroke:#181818;stroke-width:0.5;"/></g><g class="participant participant-head" data-participant="UI"><rect fill="#E2E2F0" height="34.9531" rx="2.5" ry="2.5" style="stroke:#181818;stroke-width:0.5;" width="264.8047" x="292.4878" y="82.6406"/><text fill="#000000" font-family="sans-serif" font-size="18" font-weight="bold" lengthAdjust="spacing" textLength="250.8047" x="299.4878" y="106.3486">UI - Dar de Alta Huésped</text></g><g class="participant participant-head" data-participant="GestorPersona"><rect fill="#E2E2F0" height="34.9531" rx="2.5" ry="2.5" style="stroke:#181818;stroke-width:0.5;" width="171.0605" x="896.5737" y="82.6406"/><text fill="#000000" font-family="sans-serif" font-size="18" font-weight="bold" lengthAdjust="spacing" textLength="157.0605" x="903.5737" y="106.3486">:GestorPersona</text></g><g class="participant participant-head" data-participant="PersonaDAO"><rect fill="#E2E2F0" height="34.9531" rx="2.5" ry="2.5" style="stroke:#181818;stroke-width:0.5;" width="147.6904" x="1128.2979" y="82.6406"/><text fill="#000000" font-family="sans-serif" font-size="18" font-weight="bold" lengthAdjust="spacing" textLength="133.6904" x="1135.2979" y="106.3486">:PersonaDAO</text></g><g class="participant participant-head" data-participant="Personas"><text fill="#000000" font-family="sans-serif" font-size="14" lengthAdjust="spacing" textLength="63.417" x="1401.3804" y="115.292">Personas</text><path d="M1418.0889,66.2969 C1418.0889,56.2969 1436.0889,56.2969 1436.0889,56.2969 C1436.0889,56.2969 1454.0889,56.2969 1454.0889,66.2969 L1454.0889,92.2969 C1454.0889,102.2969 1436.0889,102.2969 1436.0889,102.2969 C1436.0889,102.2969 1418.0889,102.2969 1418.0889,92.2969 L1418.0889,66.2969" fill="#E2E2F0" style="stroke:#181818;stroke-width:1.5;"/><path d="M1418.0889,66.2969 C1418.0889,76.2969 1436.0889,76.2969 1436.0889,76.2969 C1436.0889,76.2969 1454.0889,76.2969 1454.0889,66.2969" fill="none" style="stroke:#181818;stroke-width:1.5;"/></g><g><title>=UI - Dar de Alta Huésped</title><rect fill="#FFFFFF" height="216.0625" style="stroke:#181818;stroke-width:1;" width="10" x="419.8901" y="164.8594"/></g><g><title>=UI - Dar de Alta Huésped</title><rect fill="#FFFFFF" height="111.5313" style="stroke:#181818;stroke-width:1;" width="10" x="419.8901" y="845.0781"/></g><g><title>=:GestorPersona</title><rect fill="#FFFFFF" height="96.3984" style="stroke:#181818;stroke-width:1;" width="10" x="977.104" y="417.0547"/></g><g><title>=:GestorPersona</title><rect fill="#FFFFFF" height="303.6875" style="stroke:#181818;stroke-width:1;" width="10" x="977.104" y="668.9219"/></g><g><title>=:PersonaDAO</title><rect fill="#FFFFFF" height="38.1328" style="stroke:#181818;stroke-width:1;" width="10" x="1197.1431" y="446.1875"/></g><g><title>=:PersonaDAO</title><rect fill="#FFFFFF" height="303.6875" style="stroke:#181818;stroke-width:1;" width="10" x="1197.1431" y="668.9219"/></g><g><title>=Huesped</title><rect fill="#FFFFFF" height="49.9531" style="stroke:#181818;stroke-width:1;" width="10" x="1334.9912" y="729.8594"/></g><g class="message" data-participant-1="Conserje" data-participant-2="UI"><polygon fill="#181818" points="407.8901,160.8594,417.8901,164.8594,407.8901,168.8594,411.8901,164.8594" style="stroke:#181818;stroke-width:1;"/><line style="stroke:#181818;stroke-width:1;" x1="63.6899" x2="413.8901" y1="164.8594" y2="164.8594"/><text fill="#000000" font-family="sans-serif" font-size="13" lengthAdjust="spacing" textLength="170.5806" x="70.6899" y="144.6606">Solicita trabajar con datos</text><text fill="#000000" font-family="sans-serif" font-size="13" lengthAdjust="spacing" textLength="141.0005" x="70.6899" y="159.7935">de un nuevo huésped</text></g><g class="message" data-participant-1="UI" data-participant-2="Conserje"><polygon fill="#181818" points="74.6899,205.125,64.6899,209.125,74.6899,213.125,70.6899,209.125" style="stroke:#181818;stroke-width:1;"/><line style="stroke:#181818;stroke-width:1;" x1="68.6899" x2="418.8901" y1="209.125" y2="209.125"/><text fill="#000000" font-family="sans-serif" font-size="13" lengthAdjust="spacing" textLength="197.4819" x="80.6899" y="188.9263">Presenta la pantalla en blanco</text><text fill="#000000" font-family="sans-serif" font-size="13" lengthAdjust="spacing" textLength="213.3701" x="80.6899" y="204.0591">para cargar los datos personales</text></g><g class="message" data-participant-1="Conserje" data-participant-2="UI"><polygon fill="#181818" points="407.8901,234.2578,417.8901,238.2578,407.8901,242.2578,411.8901,238.2578" style="stroke:#181818;stroke-width:1;"/><line style="stroke:#181818;stroke-width:1;" x1="63.6899" x2="413.8901" y1="238.2578" y2="238.2578"/><text fill="#000000" font-family="sans-serif" font-size="13" lengthAdjust="spacing" textLength="168.9683" x="70.6899" y="233.1919">Ingresar datos personales</text></g><path d="M20,253.2578 L84.4429,253.2578 L84.4429,260.3906 L74.4429,270.3906 L20,270.3906 L20,253.2578" fill="#EEEEEE" style="stroke:#000000;stroke-width:1.5;"/><rect fill="none" height="46.2656" style="stroke:#000000;stroke-width:1.5;" width="547.2925" x="20" y="253.2578"/><text fill="#000000" font-family="sans-serif" font-size="13" font-weight="bold" lengthAdjust="spacing" textLength="19.4429" x="35" y="266.3247">alt</text><text fill="#000000" font-family="sans-serif" font-size="11" font-weight="bold" lengthAdjust="spacing" textLength="149.4775" x="99.4429" y="265.4683">[datosCompletos=false]</text><g class="message" data-participant-1="UI" data-participant-2="Conserje"><polygon fill="#181818" points="74.6899,287.5234,64.6899,291.5234,74.6899,295.5234,70.6899,291.5234" style="stroke:#181818;stroke-width:1;"/><line style="stroke:#181818;stroke-width:1;" x1="68.6899" x2="418.8901" y1="291.5234" y2="291.5234"/><text fill="#000000" font-family="sans-serif" font-size="13" lengthAdjust="spacing" textLength="268.2773" x="80.6899" y="286.4575">Mostrar mensaje de los campos faltantes</text></g><path d="M20,313.5234 L84.4429,313.5234 L84.4429,320.6563 L74.4429,330.6563 L20,330.6563 L20,313.5234" fill="#EEEEEE" style="stroke:#000000;stroke-width:1.5;"/><rect fill="none" height="75.3984" style="stroke:#000000;stroke-width:1.5;" width="547.2925" x="20" y="313.5234"/><text fill="#000000" font-family="sans-serif" font-size="13" font-weight="bold" lengthAdjust="spacing" textLength="19.4429" x="35" y="326.5903">alt</text><g class="message" data-participant-1="Conserje" data-participant-2="UI"><polygon fill="#181818" points="407.8901,347.7891,417.8901,351.7891,407.8901,355.7891,411.8901,351.7891" style="stroke:#181818;stroke-width:1;"/><line style="stroke:#181818;stroke-width:1;" x1="63.6899" x2="413.8901" y1="351.7891" y2="351.7891"/><text fill="#000000" font-family="sans-serif" font-size="13" lengthAdjust="spacing" textLength="57.3511" x="70.6899" y="346.7231">Cancelar</text></g><g class="message" data-participant-1="UI" data-participant-2="Conserje"><polygon fill="#181818" points="74.6899,376.9219,64.6899,380.9219,74.6899,384.9219,70.6899,380.9219" style="stroke:#181818;stroke-width:1;"/><line style="stroke:#181818;stroke-width:1;" x1="68.6899" x2="423.8901" y1="380.9219" y2="380.9219"/><text fill="#000000" font-family="sans-serif" font-size="13" lengthAdjust="spacing" textLength="198.1865" x="80.6899" y="375.856">Regresa a la pantalla principal</text></g><g class="message" data-participant-1="UI" data-participant-2="GestorPersona"><polygon fill="#181818" points="965.104,413.0547,975.104,417.0547,965.104,421.0547,969.104,417.0547" style="stroke:#181818;stroke-width:1;"/><line style="stroke:#181818;stroke-width:1;" x1="424.8901" x2="971.104" y1="417.0547" y2="417.0547"/><text fill="#000000" font-family="sans-serif" font-size="13" lengthAdjust="spacing" textLength="191.0391" x="464.9487" y="411.9888">buscarHuesped(tipo_dni, dni)</text></g><g class="message" data-participant-1="GestorPersona" data-participant-2="PersonaDAO"><polygon fill="#181818" points="1185.1431,442.1875,1195.1431,446.1875,1185.1431,450.1875,1189.1431,446.1875" style="stroke:#181818;stroke-width:1;"/><line style="stroke:#181818;stroke-width:1;" x1="987.104" x2="1191.1431" y1="446.1875" y2="446.1875"/><text fill="#000000" font-family="sans-serif" font-size="13" lengthAdjust="spacing" textLength="191.0391" x="994.104" y="441.1216">buscarHuesped(tipo_dni, dni)</text></g><path d="M10,461.1875 L74.4429,461.1875 L74.4429,468.3203 L64.4429,478.3203 L10,478.3203 L10,461.1875" fill="#EEEEEE" style="stroke:#000000;stroke-width:1.5;"/><rect fill="none" height="340.625" style="stroke:#000000;stroke-width:1.5;" width="1470.7974" x="10" y="461.1875"/><text fill="#000000" font-family="sans-serif" font-size="13" font-weight="bold" lengthAdjust="spacing" textLength="19.4429" x="25" y="474.2544">alt</text><text fill="#000000" font-family="sans-serif" font-size="11" font-weight="bold" lengthAdjust="spacing" textLength="55.3652" x="89.4429" y="473.3979">[p!=null]</text><g class="message" data-participant-1="PersonaDAO" data-participant-2="GestorPersona"><polygon fill="#181818" points="998.104,480.3203,988.104,484.3203,998.104,488.3203,994.104,484.3203" style="stroke:#181818;stroke-width:1;"/><line style="stroke:#181818;stroke-width:1;stroke-dasharray:2.0,2.0;" x1="992.104" x2="1201.1431" y1="484.3203" y2="484.3203"/></g><g class="message" data-participant-1="GestorPersona" data-participant-2="UI"><polygon fill="#181818" points="435.8901,509.4531,425.8901,513.4531,435.8901,517.4531,431.8901,513.4531" style="stroke:#181818;stroke-width:1;"/><line style="stroke:#181818;stroke-width:1;stroke-dasharray:2.0,2.0;" x1="429.8901" x2="981.104" y1="513.4531" y2="513.4531"/><text fill="#000000" font-family="sans-serif" font-size="13" lengthAdjust="spacing" textLength="528.2139" x="441.8901" y="508.3872">Mostrar mensaje "¡CUIDADO! El número de documento ya existen en el sistema"</text></g><g class="message" data-participant-1="UI" data-participant-2="Conserje"><polygon fill="#181818" points="74.6899,538.5859,64.6899,542.5859,74.6899,546.5859,70.6899,542.5859" style="stroke:#181818;stroke-width:1;"/><line style="stroke:#181818;stroke-width:1;" x1="68.6899" x2="423.8901" y1="542.5859" y2="542.5859"/><text fill="#000000" font-family="sans-serif" font-size="13" lengthAdjust="spacing" textLength="337.2002" x="80.6899" y="537.52">Mostrar opciones "Aceptar igualmente" y "Corregir"</text></g><g class="message" data-participant-1="Conserje" data-participant-2="UI"><polygon fill="#181818" points="412.8901,567.7188,422.8901,571.7188,412.8901,575.7188,416.8901,571.7188" style="stroke:#181818;stroke-width:1;"/><line style="stroke:#181818;stroke-width:1;" x1="63.6899" x2="418.8901" y1="571.7188" y2="571.7188"/><text fill="#000000" font-family="sans-serif" font-size="13" lengthAdjust="spacing" textLength="84.3223" x="70.6899" y="566.6528">Elegir opción</text></g><path d="M20,586.7188 L84.4429,586.7188 L84.4429,593.8516 L74.4429,603.8516 L20,603.8516 L20,586.7188" fill="#EEEEEE" style="stroke:#000000;stroke-width:1.5;"/><rect fill="none" height="90.2031" style="stroke:#000000;stroke-width:1.5;" width="1265.9883" x="20" y="586.7188"/><text fill="#000000" font-family="sans-serif" font-size="13" font-weight="bold" lengthAdjust="spacing" textLength="19.4429" x="35" y="599.7856">alt</text><text fill="#000000" font-family="sans-serif" font-size="11" font-weight="bold" lengthAdjust="spacing" textLength="111.3911" x="99.4429" y="598.9292">[opcion=Corregir]</text><g class="message" data-participant-1="UI" data-participant-2="Conserje"><polygon fill="#181818" points="74.6899,620.9844,64.6899,624.9844,74.6899,628.9844,70.6899,624.9844" style="stroke:#181818;stroke-width:1;"/><line style="stroke:#181818;stroke-width:1;" x1="68.6899" x2="423.8901" y1="624.9844" y2="624.9844"/><text fill="#000000" font-family="sans-serif" font-size="13" lengthAdjust="spacing" textLength="178.8008" x="80.6899" y="619.9185">Solicitar reingreso de datos</text></g><line style="stroke:#000000;stroke-width:1;stroke-dasharray:2.0,2.0;" x1="20" x2="1285.9883" y1="633.9844" y2="633.9844"/><text fill="#000000" font-family="sans-serif" font-size="11" font-weight="bold" lengthAdjust="spacing" textLength="182.8267" x="25" y="644.1948">[opcion=Aceptar igualmente]</text><g class="message" data-participant-1="GestorPersona" data-participant-2="PersonaDAO"><polygon fill="#181818" points="1185.1431,664.9219,1195.1431,668.9219,1185.1431,672.9219,1189.1431,668.9219" style="stroke:#181818;stroke-width:1;"/><line style="stroke:#181818;stroke-width:1;" x1="987.104" x2="1191.1431" y1="668.9219" y2="668.9219"/><text fill="#000000" font-family="sans-serif" font-size="13" lengthAdjust="spacing" textLength="153.3467" x="994.104" y="663.856">crearHuesped(Persona)</text></g><line style="stroke:#000000;stroke-width:1;stroke-dasharray:2.0,2.0;" x1="10" x2="1480.7974" y1="684.9219" y2="684.9219"/><text fill="#000000" font-family="sans-serif" font-size="11" font-weight="bold" lengthAdjust="spacing" textLength="50.3486" x="15" y="695.1323">[p=null]</text><g class="message" data-participant-1="PersonaDAO" data-participant-2="Huesped"><polygon fill="#181818" points="1276.6021,715.8594,1286.6021,719.8594,1276.6021,723.8594,1280.6021,719.8594" style="stroke:#181818;stroke-width:1;"/><line style="stroke:#181818;stroke-width:1;" x1="1207.1431" x2="1282.6021" y1="719.8594" y2="719.8594"/><text fill="#000000" font-family="sans-serif" font-size="13" lengthAdjust="spacing" textLength="57.459" x="1214.1431" y="714.7935">«create»</text></g><rect fill="#E2E2F0" height="34.9531" rx="2.5" ry="2.5" style="stroke:#181818;stroke-width:0.5;" width="102.7783" x="1288.6021" y="698.7266"/><text fill="#000000" font-family="sans-serif" font-size="18" font-weight="bold" lengthAdjust="spacing" textLength="88.7783" x="1295.6021" y="722.4346">Huesped</text><g class="message" data-participant-1="PersonaDAO" data-participant-2="Personas"><polygon fill="#181818" points="1424.0889,761.8125,1434.0889,765.8125,1424.0889,769.8125,1428.0889,765.8125" style="stroke:#181818;stroke-width:1;"/><line style="stroke:#181818;stroke-width:1;" x1="1207.1431" x2="1430.0889" y1="765.8125" y2="765.8125"/><text fill="#000000" font-family="sans-serif" font-size="13" lengthAdjust="spacing" textLength="97.8618" x="1214.1431" y="760.7466">save(Huesped)</text></g><g class="message" data-participant-1="Personas" data-participant-2="PersonaDAO"><polygon fill="#181818" points="1218.1431,775.8125,1208.1431,779.8125,1218.1431,783.8125,1214.1431,779.8125" style="stroke:#181818;stroke-width:1;"/><line style="stroke:#181818;stroke-width:1;stroke-dasharray:2.0,2.0;" x1="1212.1431" x2="1435.0889" y1="779.8125" y2="779.8125"/></g><g class="message" data-participant-1="PersonaDAO" data-participant-2="GestorPersona"><polygon fill="#181818" points="998.104,789.8125,988.104,793.8125,998.104,797.8125,994.104,793.8125" style="stroke:#181818;stroke-width:1;"/><line style="stroke:#181818;stroke-width:1;stroke-dasharray:2.0,2.0;" x1="992.104" x2="1196.1431" y1="793.8125" y2="793.8125"/></g><g class="message" data-participant-1="GestorPersona" data-participant-2="UI"><polygon fill="#181818" points="440.8901,841.0781,430.8901,845.0781,440.8901,849.0781,436.8901,845.0781" style="stroke:#181818;stroke-width:1;"/><line style="stroke:#181818;stroke-width:1;" x1="434.8901" x2="976.104" y1="845.0781" y2="845.0781"/><text fill="#000000" font-family="sans-serif" font-size="13" lengthAdjust="spacing" textLength="452.5181" x="446.8901" y="824.8794">Mostrar mensaje "El huésped &lt;nombre&gt; &lt;apellido&gt; ha sido cargado</text><text fill="#000000" font-family="sans-serif" font-size="13" lengthAdjust="spacing" textLength="395.0464" x="446.8901" y="840.0122">satisfactoriamente cargado al sistema. ¿Desea cargar otro?"</text></g><g class="message" data-participant-1="UI" data-participant-2="Conserje"><polygon fill="#181818" points="74.6899,870.2109,64.6899,874.2109,74.6899,878.2109,70.6899,874.2109" style="stroke:#181818;stroke-width:1;"/><line style="stroke:#181818;stroke-width:1;" x1="68.6899" x2="418.8901" y1="874.2109" y2="874.2109"/><text fill="#000000" font-family="sans-serif" font-size="13" lengthAdjust="spacing" textLength="185.3071" x="80.6899" y="869.145">Mostrar opciones "Sí" y "No"</text></g><g class="message" data-participant-1="Conserje" data-participant-2="UI"><polygon fill="#181818" points="407.8901,899.3438,417.8901,903.3438,407.8901,907.3438,411.8901,903.3438" style="stroke:#181818;stroke-width:1;"/><line style="stroke:#181818;stroke-width:1;" x1="63.6899" x2="413.8901" y1="903.3438" y2="903.3438"/><text fill="#000000" font-family="sans-serif" font-size="13" lengthAdjust="spacing" textLength="84.3223" x="70.6899" y="898.2778">Elegir opción</text></g><path d="M20,918.3438 L84.4429,918.3438 L84.4429,925.4766 L74.4429,935.4766 L20,935.4766 L20,918.3438" fill="#EEEEEE" style="stroke:#000000;stroke-width:1.5;"/><rect fill="none" height="46.2656" style="stroke:#000000;stroke-width:1.5;" width="547.2925" x="20" y="918.3438"/><text fill="#000000" font-family="sans-serif" font-size="13" font-weight="bold" lengthAdjust="spacing" textLength="19.4429" x="35" y="931.4106">alt</text><text fill="#000000" font-family="sans-serif" font-size="11" font-weight="bold" lengthAdjust="spacing" textLength="72.0747" x="99.4429" y="930.5542">[opcion=Sí]</text><g class="message" data-participant-1="UI" data-participant-2="Conserje"><polygon fill="#181818" points="74.6899,952.6094,64.6899,956.6094,74.6899,960.6094,70.6899,956.6094" style="stroke:#181818;stroke-width:1;"/><line style="stroke:#181818;stroke-width:1;" x1="68.6899" x2="423.8901" y1="956.6094" y2="956.6094"/><text fill="#000000" font-family="sans-serif" font-size="13" lengthAdjust="spacing" textLength="159.6309" x="80.6899" y="951.5435">Volver a cargar huésped</text></g><!--SRC=[ZLN1Rjim3BthArZtiBPOXbqN91c2f5Xxs5giw2xBC30scwfG94EIW_PpTjnXfzvs6T3ys2WvTcCxwHOaiIsIZu_K4-sbLmHJYGkBIuICu8hIWdGg4NemkNxxhWzJjC4mLXxXh5Z_T3bbGjnANhinni_DlNW5XuU7C4wziUJW0NAqNgP5ZjhpCzi41XjCZ7PaxqYK3Z8umFKvV1N0do7VzNQd-zQ8-42EqIx9EgEn2kutLbiHczNf-A9sVrvg-PuL579MZfj7TihGunmTLMXEYAeWw8r27NsuCefncBgtx7l7jQH60qSQDzDSLg515xGoS5kLnfsHA_J4yJ5XQCAexXH3Nd9FIJEaGWW4KV4DQPWhrAcPQUQEaA9TS39bN9aCyfAZ8XTHEqJFzO9nGw_Rxj4VbIyj4xFC5V7Dy0QLesZSIVEZSLopXILfXxp2nGOsAIvpld2mZsg80AIpU1MRNqXN8tUeJhXEKcZtv_vCiHXezYYtKeSzLNLWHkrkrqn4OoFA34sTzM7cvuNZJcyaSUHbRhvdMhu6_Zj-1cWgKJHX67TBZNtuFyWjjOgmD_d1K1Ugh6mBhjTcBLfbR-44IujQrV7sNYPFFoRNvzFnzE80JXNezUybMHEsE3DfmLxUm0EBybuwpyeCNmKkF2mnQLFeyjkh9PEdqcWU8SaufTppYbmKg492IdZE91DZBIsaJNQB_5G5OuHPF-fQs2Nii0hUhwlgD5km9EE1AOiE1-CbKV51gP9qYUzgV4iJgQLdIMminoNz_LtSjyT1uf5H7YK3eYEQKJNpJauu-M0GqdiQZPgmrI3iHbVpa8CThkXeutcyxUgYkbhKjbgt3xqZw51EftkxLSjIhSOi3BHPpYsDO80vAIKpCu9RP95cfXoUV9rnd9Vk9hwi9CRTgerOA_eDFFsPyaokfwxnrhnFTWoG5oLzjVuLDVp99E9VojrIBOVjFZHVZ5gHXPfL_ORfYfHx-1S0]--></g></svg>