<?xml version="1.0" encoding="us-ascii" standalone="no"?><svg xmlns="http://www.w3.org/2000/svg" xmlns:xlink="http://www.w3.org/1999/xlink" contentStyleType="text/css" height="571px" preserveAspectRatio="none" style="width:896px;height:571px;background:#FFFFFF;" version="1.1" viewBox="0 0 896 571" width="896px" zoomAndPan="magnify"><defs/><g><text fill="#000000" font-family="sans-serif" font-size="14" font-weight="bold" lengthAdjust="spacing" textLength="445" x="226.5" y="29.5332">Diagrama de Secuencia - CU05: Mostrar Estado de Habitaciones</text><rect fill="#FFFFFF" height="121.0547" style="stroke:#181818;stroke-width:1.0;" width="10" x="335.5" y="153.5703"/><rect fill="#FFFFFF" height="30.3516" style="stroke:#181818;stroke-width:1.0;" width="10" x="335.5" y="330.3281"/><rect fill="#FFFFFF" height="30.3516" style="stroke:#181818;stroke-width:1.0;" width="10" x="335.5" y="420.8672"/><rect fill="#FFFFFF" height="30.3516" style="stroke:#181818;stroke-width:1.0;" width="10" x="335.5" y="509.0547"/><rect fill="#FFFFFF" height="85.7031" style="stroke:#181818;stroke-width:1.0;" width="10" x="692.5" y="244.625"/><rect fill="#FFFFFF" height="60.7031" style="stroke:#181818;stroke-width:1.0;" width="10" x="692.5" y="390.5156"/><rect fill="#FFFFFF" height="58.3516" style="stroke:#181818;stroke-width:1.0;" width="10" x="692.5" y="481.0547"/><rect fill="#FFFFFF" height="14" style="stroke:#181818;stroke-width:1.0;" width="10" x="819" y="495.0547"/><rect fill="none" height="257.7813" style="stroke:#000000;stroke-width:1.5;" width="879" x="10" y="289.625"/><line style="stroke:#181818;stroke-width:0.5;stroke-dasharray:5.0,5.0;" x1="51" x2="51" y1="121.2188" y2="564.4063"/><line style="stroke:#181818;stroke-width:0.5;stroke-dasharray:5.0,5.0;" x1="340.5" x2="340.5" y1="121.2188" y2="564.4063"/><line style="stroke:#181818;stroke-width:0.5;stroke-dasharray:5.0,5.0;" x1="697" x2="697" y1="121.2188" y2="564.4063"/><line style="stroke:#181818;stroke-width:0.5;stroke-dasharray:5.0,5.0;" x1="824" x2="824" y1="121.2188" y2="564.4063"/><text fill="#000000" font-family="sans-serif" font-size="14" lengthAdjust="spacing" textLength="57" x="20" y="118.1426">Conserje</text><ellipse cx="51.5" cy="52.1094" fill="#E2E2F0" rx="8" ry="8" style="stroke:#181818;stroke-width:0.5;"/><path d="M51.5,60.1094 L51.5,87.1094 M38.5,68.1094 L64.5,68.1094 M51.5,87.1094 L38.5,102.1094 M51.5,87.1094 L64.5,102.1094 " fill="none" style="stroke:#181818;stroke-width:0.5;"/><rect fill="#E2E2F0" height="31.6094" rx="2.5" ry="2.5" style="stroke:#181818;stroke-width:0.5;" width="212" x="234.5" y="88.6094"/><text fill="#000000" font-family="sans-serif" font-size="14" lengthAdjust="spacing" textLength="198" x="241.5" y="110.1426">UI - MostrarEstadoHabitaciones</text><rect fill="#E2E2F0" height="31.6094" rx="2.5" ry="2.5" style="stroke:#181818;stroke-width:0.5;" width="123" x="636" y="88.6094"/><text fill="#000000" font-family="sans-serif" font-size="14" lengthAdjust="spacing" textLength="109" x="643" y="110.1426">GestorHabitacion</text><rect fill="#E2E2F0" height="31.6094" rx="2.5" ry="2.5" style="stroke:#181818;stroke-width:0.5;" width="110" x="769" y="88.6094"/><text fill="#000000" font-family="sans-serif" font-size="14" lengthAdjust="spacing" textLength="96" x="776" y="110.1426">HabitacionDAO</text><rect fill="#FFFFFF" height="121.0547" style="stroke:#181818;stroke-width:1.0;" width="10" x="335.5" y="153.5703"/><rect fill="#FFFFFF" height="30.3516" style="stroke:#181818;stroke-width:1.0;" width="10" x="335.5" y="330.3281"/><rect fill="#FFFFFF" height="30.3516" style="stroke:#181818;stroke-width:1.0;" width="10" x="335.5" y="420.8672"/><rect fill="#FFFFFF" height="30.3516" style="stroke:#181818;stroke-width:1.0;" width="10" x="335.5" y="509.0547"/><rect fill="#FFFFFF" height="85.7031" style="stroke:#181818;stroke-width:1.0;" width="10" x="692.5" y="244.625"/><rect fill="#FFFFFF" height="60.7031" style="stroke:#181818;stroke-width:1.0;" width="10" x="692.5" y="390.5156"/><rect fill="#FFFFFF" height="58.3516" style="stroke:#181818;stroke-width:1.0;" width="10" x="692.5" y="481.0547"/><rect fill="#FFFFFF" height="14" style="stroke:#181818;stroke-width:1.0;" width="10" x="819" y="495.0547"/><polygon fill="#181818" points="323.5,149.5703,333.5,153.5703,323.5,157.5703,327.5,153.5703" style="stroke:#181818;stroke-width:1.0;"/><line style="stroke:#181818;stroke-width:1.0;" x1="51.5" x2="329.5" y1="153.5703" y2="153.5703"/><text fill="#000000" font-family="sans-serif" font-size="13" lengthAdjust="spacing" textLength="229" x="58.5" y="148.7139">Solicita mostrar estado de habitaciones</text><polygon fill="#181818" points="62.5,179.9219,52.5,183.9219,62.5,187.9219,58.5,183.9219" style="stroke:#181818;stroke-width:1.0;"/><line style="stroke:#181818;stroke-width:1.0;" x1="56.5" x2="334.5" y1="183.9219" y2="183.9219"/><text fill="#000000" font-family="sans-serif" font-size="13" lengthAdjust="spacing" textLength="260" x="68.5" y="179.0654">Mostrar pantalla para aplicar rango de fechas</text><polygon fill="#181818" points="323.5,210.2734,333.5,214.2734,323.5,218.2734,327.5,214.2734" style="stroke:#181818;stroke-width:1.0;"/><line style="stroke:#181818;stroke-width:1.0;" x1="51.5" x2="329.5" y1="214.2734" y2="214.2734"/><text fill="#000000" font-family="sans-serif" font-size="13" lengthAdjust="spacing" textLength="93" x="58.5" y="209.417">Ingresar Fechas</text><polygon fill="#181818" points="680.5,240.625,690.5,244.625,680.5,248.625,684.5,244.625" style="stroke:#181818;stroke-width:1.0;"/><line style="stroke:#181818;stroke-width:1.0;" x1="345.5" x2="686.5" y1="244.625" y2="244.625"/><text fill="#000000" font-family="sans-serif" font-size="13" lengthAdjust="spacing" textLength="328" x="352.5" y="239.7686">f:=mostrarEstadoHabitaciones(Date: desde, Date: hasta)</text><path d="M10,289.625 L71,289.625 L71,297.9766 L61,307.9766 L10,307.9766 L10,289.625 " fill="#EEEEEE" style="stroke:#000000;stroke-width:1.5;"/><rect fill="none" height="257.7813" style="stroke:#000000;stroke-width:1.5;" width="879" x="10" y="289.625"/><text fill="#000000" font-family="sans-serif" font-size="13" font-weight="bold" lengthAdjust="spacing" textLength="16" x="25" y="304.1201">alt</text><text fill="#000000" font-family="sans-serif" font-size="11" font-weight="bold" lengthAdjust="spacing" textLength="122" x="86" y="303.0439">[Fecha Desde Invalida]</text><polygon fill="#181818" points="356.5,326.3281,346.5,330.3281,356.5,334.3281,352.5,330.3281" style="stroke:#181818;stroke-width:1.0;"/><line style="stroke:#181818;stroke-width:1.0;" x1="350.5" x2="696.5" y1="330.3281" y2="330.3281"/><text fill="#000000" font-family="sans-serif" font-size="13" lengthAdjust="spacing" textLength="236" x="362.5" y="325.4717">mostrar mensaje("Fecha desde invalida")</text><polygon fill="#181818" points="62.5,356.6797,52.5,360.6797,62.5,364.6797,58.5,360.6797" style="stroke:#181818;stroke-width:1.0;"/><line style="stroke:#181818;stroke-width:1.0;" x1="56.5" x2="339.5" y1="360.6797" y2="360.6797"/><text fill="#000000" font-family="sans-serif" font-size="13" lengthAdjust="spacing" textLength="140" x="68.5" y="355.8232">Solicita reingresar datos</text><line style="stroke:#000000;stroke-width:1.0;stroke-dasharray:2.0,2.0;" x1="10" x2="889" y1="369.6797" y2="369.6797"/><text fill="#000000" font-family="sans-serif" font-size="11" font-weight="bold" lengthAdjust="spacing" textLength="117" x="15" y="381.0986">[Fecha Hasta Invalida]</text><polygon fill="#181818" points="356.5,416.8672,346.5,420.8672,356.5,424.8672,352.5,420.8672" style="stroke:#181818;stroke-width:1.0;"/><line style="stroke:#181818;stroke-width:1.0;" x1="350.5" x2="691.5" y1="420.8672" y2="420.8672"/><text fill="#000000" font-family="sans-serif" font-size="13" lengthAdjust="spacing" textLength="233" x="362.5" y="416.0107">mostrar mensaje("Fecha hasta invalida")</text><polygon fill="#181818" points="62.5,447.2188,52.5,451.2188,62.5,455.2188,58.5,451.2188" style="stroke:#181818;stroke-width:1.0;"/><line style="stroke:#181818;stroke-width:1.0;" x1="56.5" x2="339.5" y1="451.2188" y2="451.2188"/><text fill="#000000" font-family="sans-serif" font-size="13" lengthAdjust="spacing" textLength="140" x="68.5" y="446.3623">Solicita reingresar datos</text><line style="stroke:#000000;stroke-width:1.0;stroke-dasharray:2.0,2.0;" x1="10" x2="889" y1="460.2188" y2="460.2188"/><text fill="#000000" font-family="sans-serif" font-size="11" font-weight="bold" lengthAdjust="spacing" textLength="84" x="15" y="471.6377">[Flujo Principal]</text><polygon fill="#181818" points="807,491.0547,817,495.0547,807,499.0547,811,495.0547" style="stroke:#181818;stroke-width:1.0;"/><line style="stroke:#181818;stroke-width:1.0;stroke-dasharray:2.0,2.0;" x1="702.5" x2="813" y1="495.0547" y2="495.0547"/><polygon fill="#181818" points="713.5,505.0547,703.5,509.0547,713.5,513.0547,709.5,509.0547" style="stroke:#181818;stroke-width:1.0;"/><line style="stroke:#181818;stroke-width:1.0;stroke-dasharray:2.0,2.0;" x1="707.5" x2="823" y1="509.0547" y2="509.0547"/><polygon fill="#181818" points="351.5,535.4063,341.5,539.4063,351.5,543.4063,347.5,539.4063" style="stroke:#181818;stroke-width:1.0;"/><line style="stroke:#181818;stroke-width:1.0;" x1="345.5" x2="696.5" y1="539.4063" y2="539.4063"/><text fill="#000000" font-family="sans-serif" font-size="13" lengthAdjust="spacing" textLength="157" x="357.5" y="534.5498">mostrarGrillaHabitaciones()</text><!--SRC=[nLHBQy904BxlhnXoKgZGIo-12iMqwg6q89vA3sDsD2kRNTbTfJ-_6nDDJ8b9Mg6tx6E- -HwJJGGdM6ljLlgBEU4aGIHmOp15y2SBYlUaOe4mWido_Y64LssTGGFFrY7NsPqPheJ3M6X5bZ6CdJOGJBIoPBOKi1qQ9sAnG-KWMCuzK06H8rIhQvUdP3rMUQ5sN1v4Jsy1OwUMC1gtDe8G5bfwA8UG5eheh2YfAlA2n04TjPDdhBMjftQcMNgPwK4fqNyO1DnvOdxNeDeSwQmfJj3srJTN6qFMuxpavTtOrJttGElmCMsg6KJUcT2Jj9pk85_uPWw7fMzrICOuzJ4LfSirG9IryS8EA0L7ndwGxURCAV2KbCKj3O8S_IW2H84U3AiqVsZeBg3dJ9p7qf0u9SZHQTlJDPAM2jjcMI1NRVj81EUaFiSTa9izkMqSnp6gnl4Vdb-TWTy48lTR3Uz6gEmLazUpk7ZW-Xa_Qgw-tBzO7Ukk_gvDeAtw_pORKoFyytZny0nlc0qf_Wq0]--></g></svg>